<svg width="24" height="24" viewBox="0 0 24 24" fill="none" xmlns="http://www.w3.org/2000/svg">
<path d="M11.3788 18.8458H12.6212M21.9614 17.4806H2.03863V4.81319C2.03863 4.54144 2.14658 4.28083 2.33874 4.08868C2.53089 3.89652 2.7915 3.78857 3.06325 3.78857H20.9368C21.2085 3.78857 21.4691 3.89652 21.6613 4.08868C21.8535 4.28083 21.9614 4.54144 21.9614 4.81319V17.4806ZM23.0769 17.4806H0.923096C0.923096 18.9889 2.53294 20.2115 4.5194 20.2115H19.4806C21.4671 20.2115 23.0769 18.9884 23.0769 17.4806Z" stroke="#343E25" stroke-miterlimit="10" stroke-linecap="round" stroke-linejoin="round"/>
<path d="M6.08356 13.8911L10.3528 9.6219L13.0126 12.2813L17.9165 7.37744" stroke="#343E25" stroke-miterlimit="10" stroke-linecap="round" stroke-linejoin="round"/>
<path d="M11.3788 18.8458H12.6212M21.9614 17.4806H2.03863V4.81319C2.03863 4.54144 2.14658 4.28083 2.33874 4.08868C2.53089 3.89652 2.7915 3.78857 3.06325 3.78857H20.9368C21.2085 3.78857 21.4691 3.89652 21.6613 4.08868C21.8535 4.28083 21.9614 4.54144 21.9614 4.81319V17.4806ZM23.0769 17.4806H0.923096C0.923096 18.9889 2.53294 20.2115 4.5194 20.2115H19.4806C21.4671 20.2115 23.0769 18.9884 23.0769 17.4806Z" stroke="#343E25" stroke-width="0.5" stroke-miterlimit="10" stroke-linecap="round" stroke-linejoin="round"/>
<path d="M6.08356 13.8911L10.3528 9.6219L13.0126 12.2813L17.9165 7.37744" stroke="#343E25" stroke-width="0.5" stroke-miterlimit="10" stroke-linecap="round" stroke-linejoin="round"/>
</svg>
