<svg width="270" height="234" viewBox="0 0 270 234" fill="none" xmlns="http://www.w3.org/2000/svg">
<rect width="270" height="234" rx="10" fill="white"/>
<g clip-path="url(#clip0_297_2027)">
<path d="M155 43.9998L153.147 46.3902L154.323 49.177L151.913 51.0054L152.323 54.0017L149.521 55.1412L149.142 58.142L146.141 58.5209L145.002 61.3231L142.005 60.9133L140.177 63.3228L137.39 62.1472L135 64L132.609 62.1472L129.823 63.3228L127.995 60.9133L124.998 61.3227L123.858 58.5209L120.858 58.142L120.479 55.1412L117.677 54.0017L118.086 51.005L115.677 49.177L116.853 46.3902L115 43.9998L116.853 41.6094L115.677 38.8226L118.086 36.9946L117.677 33.9979L120.479 32.8584L120.858 29.858L123.859 29.4787L124.998 26.6769L127.995 27.0863L129.823 24.6768L132.609 25.8528L135 24L137.39 25.8528L140.177 24.6768L142.005 27.0863L145.002 26.6769L146.141 29.4787L149.142 29.858L149.521 32.8588L152.323 33.9979L151.913 36.9946L154.323 38.8226L153.147 41.6094L155 43.9998Z" fill="#2AA241"/>
<path d="M131.267 51.8913L126.802 47.4251L128.469 45.7574L131.179 48.4673L141.489 37.0312L143.241 38.6102L131.267 51.8913Z" fill="white"/>
</g>
<g clip-path="url(#clip1_297_2027)">
<path d="M98.2504 93.2898H96.1254C96.0648 92.9413 95.953 92.6326 95.7902 92.3636C95.6273 92.0909 95.4246 91.8598 95.1822 91.6705C94.9398 91.4811 94.6633 91.339 94.3527 91.2443C94.0458 91.1458 93.7144 91.0966 93.3583 91.0966C92.7258 91.0966 92.1652 91.2557 91.6765 91.5739C91.1879 91.8883 90.8053 92.3504 90.5288 92.9602C90.2523 93.5663 90.114 94.3068 90.114 95.1818C90.114 96.072 90.2523 96.822 90.5288 97.4318C90.8091 98.0379 91.1917 98.4962 91.6765 98.8068C92.1652 99.1136 92.7239 99.267 93.3527 99.267C93.7011 99.267 94.0269 99.2216 94.3299 99.1307C94.6368 99.036 94.9114 98.8977 95.1538 98.7159C95.4 98.5341 95.6065 98.3106 95.7731 98.0455C95.9436 97.7803 96.061 97.4773 96.1254 97.1364L98.2504 97.1477C98.1708 97.7008 97.9985 98.2197 97.7333 98.7045C97.472 99.1894 97.1292 99.6174 96.7049 99.9886C96.2807 100.356 95.7845 100.644 95.2163 100.852C94.6481 101.057 94.0174 101.159 93.3243 101.159C92.3015 101.159 91.3886 100.922 90.5856 100.449C89.7826 99.9754 89.15 99.2917 88.6879 98.3977C88.2258 97.5038 87.9947 96.4318 87.9947 95.1818C87.9947 93.928 88.2277 92.8561 88.6936 91.9659C89.1595 91.072 89.794 90.3883 90.597 89.9148C91.4 89.4413 92.3091 89.2045 93.3243 89.2045C93.972 89.2045 94.5743 89.2955 95.1311 89.4773C95.6879 89.6591 96.1841 89.9261 96.6197 90.2784C97.0553 90.6269 97.4133 91.0549 97.6936 91.5625C97.9777 92.0663 98.1633 92.642 98.2504 93.2898ZM103.489 101.17C102.636 101.17 101.898 100.983 101.273 100.608C100.648 100.233 100.163 99.7083 99.8182 99.0341C99.4773 98.3598 99.3069 97.572 99.3069 96.6705C99.3069 95.7689 99.4773 94.9792 99.8182 94.3011C100.163 93.6231 100.648 93.0966 101.273 92.7216C101.898 92.3466 102.636 92.1591 103.489 92.1591C104.341 92.1591 105.08 92.3466 105.705 92.7216C106.33 93.0966 106.813 93.6231 107.153 94.3011C107.498 94.9792 107.671 95.7689 107.671 96.6705C107.671 97.572 107.498 98.3598 107.153 99.0341C106.813 99.7083 106.33 100.233 105.705 100.608C105.08 100.983 104.341 101.17 103.489 101.17ZM103.5 99.5227C103.962 99.5227 104.349 99.3958 104.659 99.142C104.97 98.8845 105.201 98.5398 105.352 98.108C105.508 97.6761 105.585 97.1951 105.585 96.6648C105.585 96.1307 105.508 95.6477 105.352 95.2159C105.201 94.7803 104.97 94.4337 104.659 94.1761C104.349 93.9186 103.962 93.7898 103.5 93.7898C103.027 93.7898 102.633 93.9186 102.318 94.1761C102.008 94.4337 101.775 94.7803 101.619 95.2159C101.468 95.6477 101.392 96.1307 101.392 96.6648C101.392 97.1951 101.468 97.6761 101.619 98.108C101.775 98.5398 102.008 98.8845 102.318 99.142C102.633 99.3958 103.027 99.5227 103.5 99.5227ZM111.065 95.8864V101H109.008V92.2727H110.974V93.7557H111.076C111.277 93.267 111.597 92.8788 112.037 92.5909C112.48 92.303 113.027 92.1591 113.679 92.1591C114.281 92.1591 114.806 92.2879 115.253 92.5455C115.703 92.803 116.052 93.1761 116.298 93.6648C116.548 94.1534 116.671 94.7462 116.667 95.4432V101H114.611V95.7614C114.611 95.178 114.459 94.7216 114.156 94.392C113.857 94.0625 113.442 93.8977 112.912 93.8977C112.552 93.8977 112.232 93.9773 111.951 94.1364C111.675 94.2917 111.457 94.517 111.298 94.8125C111.143 95.108 111.065 95.4659 111.065 95.8864ZM122.771 92.2727V93.8636H117.612V92.2727H122.771ZM118.901 101V91.4489C118.901 90.8617 119.023 90.3731 119.265 89.983C119.511 89.5928 119.841 89.3011 120.254 89.108C120.667 88.9148 121.125 88.8182 121.629 88.8182C121.985 88.8182 122.301 88.8466 122.578 88.9034C122.854 88.9602 123.059 89.0114 123.191 89.0568L122.782 90.6477C122.695 90.6212 122.585 90.5947 122.453 90.5682C122.32 90.5379 122.172 90.5227 122.009 90.5227C121.627 90.5227 121.356 90.6155 121.197 90.8011C121.042 90.983 120.964 91.2443 120.964 91.5852V101H118.901ZM123.974 101V92.2727H126.03V101H123.974ZM125.008 91.0341C124.682 91.0341 124.402 90.9261 124.167 90.7102C123.932 90.4905 123.814 90.2273 123.814 89.9205C123.814 89.6098 123.932 89.3466 124.167 89.1307C124.402 88.911 124.682 88.8011 125.008 88.8011C125.337 88.8011 125.617 88.911 125.849 89.1307C126.083 89.3466 126.201 89.6098 126.201 89.9205C126.201 90.2273 126.083 90.4905 125.849 90.7102C125.617 90.9261 125.337 91.0341 125.008 91.0341ZM127.737 101V92.2727H129.732V93.7273H129.823C129.982 93.2235 130.254 92.8352 130.641 92.5625C131.031 92.286 131.476 92.1477 131.976 92.1477C132.09 92.1477 132.217 92.1534 132.357 92.1648C132.501 92.1723 132.62 92.1856 132.715 92.2045V94.0966C132.628 94.0663 132.489 94.0398 132.3 94.017C132.114 93.9905 131.934 93.9773 131.76 93.9773C131.385 93.9773 131.048 94.0587 130.749 94.2216C130.453 94.3807 130.22 94.6023 130.05 94.8864C129.879 95.1705 129.794 95.4981 129.794 95.8693V101H127.737ZM133.673 101V92.2727H135.639V93.7557H135.741C135.923 93.2557 136.224 92.8655 136.645 92.5852C137.065 92.3011 137.567 92.1591 138.15 92.1591C138.741 92.1591 139.239 92.303 139.645 92.5909C140.054 92.875 140.342 93.2633 140.508 93.7557H140.599C140.792 93.2708 141.118 92.8845 141.577 92.5966C142.039 92.3049 142.586 92.1591 143.219 92.1591C144.022 92.1591 144.677 92.4129 145.184 92.9205C145.692 93.428 145.946 94.1686 145.946 95.142V101H143.883V95.4602C143.883 94.9186 143.739 94.5227 143.452 94.2727C143.164 94.0189 142.811 93.892 142.395 93.892C141.899 93.892 141.51 94.0473 141.23 94.358C140.953 94.6648 140.815 95.0644 140.815 95.5568V101H138.798V95.375C138.798 94.9242 138.662 94.5644 138.389 94.2955C138.12 94.0265 137.768 93.892 137.332 93.892C137.037 93.892 136.768 93.9678 136.525 94.1193C136.283 94.267 136.09 94.4773 135.946 94.75C135.802 95.0189 135.73 95.3333 135.73 95.6932V101H133.673ZM150.136 101.176C149.583 101.176 149.085 101.078 148.642 100.881C148.202 100.68 147.854 100.384 147.596 99.9943C147.342 99.6042 147.215 99.1231 147.215 98.5511C147.215 98.0587 147.306 97.6515 147.488 97.3295C147.67 97.0076 147.918 96.75 148.232 96.5568C148.547 96.3636 148.901 96.2178 149.295 96.1193C149.693 96.017 150.104 95.9432 150.528 95.8977C151.039 95.8447 151.454 95.7973 151.772 95.7557C152.09 95.7102 152.321 95.642 152.465 95.5511C152.613 95.4564 152.687 95.3106 152.687 95.1136V95.0795C152.687 94.6515 152.56 94.3201 152.306 94.0852C152.053 93.8504 151.687 93.733 151.21 93.733C150.706 93.733 150.306 93.8428 150.011 94.0625C149.719 94.2822 149.522 94.5417 149.42 94.8409L147.5 94.5682C147.651 94.0379 147.901 93.5947 148.25 93.2386C148.598 92.8788 149.024 92.6098 149.528 92.4318C150.032 92.25 150.589 92.1591 151.198 92.1591C151.619 92.1591 152.037 92.2083 152.454 92.3068C152.871 92.4053 153.251 92.5682 153.596 92.7955C153.941 93.0189 154.217 93.3239 154.426 93.7102C154.638 94.0966 154.744 94.5795 154.744 95.1591V101H152.767V99.8011H152.698C152.573 100.044 152.397 100.271 152.17 100.483C151.946 100.691 151.664 100.86 151.323 100.989C150.986 101.114 150.59 101.176 150.136 101.176ZM150.67 99.6648C151.083 99.6648 151.441 99.5833 151.744 99.4205C152.047 99.2538 152.28 99.0341 152.443 98.7614C152.609 98.4886 152.693 98.1913 152.693 97.8693V96.8409C152.628 96.8939 152.518 96.9432 152.363 96.9886C152.212 97.0341 152.041 97.0739 151.852 97.108C151.662 97.142 151.475 97.1723 151.289 97.1989C151.104 97.2254 150.943 97.2481 150.806 97.267C150.5 97.3087 150.225 97.3769 149.982 97.4716C149.74 97.5663 149.549 97.6989 149.409 97.8693C149.268 98.036 149.198 98.2519 149.198 98.517C149.198 98.8958 149.337 99.1818 149.613 99.375C149.89 99.5682 150.242 99.6648 150.67 99.6648ZM160.762 92.2727V93.8636H155.745V92.2727H160.762ZM156.984 90.1818H159.04V98.375C159.04 98.6515 159.082 98.8636 159.165 99.0114C159.252 99.1553 159.366 99.2538 159.506 99.3068C159.646 99.3598 159.802 99.3864 159.972 99.3864C160.101 99.3864 160.218 99.3769 160.324 99.358C160.434 99.339 160.518 99.322 160.574 99.3068L160.921 100.915C160.811 100.953 160.654 100.994 160.449 101.04C160.249 101.085 160.002 101.112 159.711 101.119C159.196 101.134 158.732 101.057 158.319 100.886C157.906 100.712 157.578 100.443 157.336 100.08C157.097 99.7159 156.98 99.2614 156.984 98.7159V90.1818ZM162.074 101V92.2727H164.131V101H162.074ZM163.108 91.0341C162.782 91.0341 162.502 90.9261 162.267 90.7102C162.032 90.4905 161.915 90.2273 161.915 89.9205C161.915 89.6098 162.032 89.3466 162.267 89.1307C162.502 88.911 162.782 88.8011 163.108 88.8011C163.438 88.8011 163.718 88.911 163.949 89.1307C164.184 89.3466 164.301 89.6098 164.301 89.9205C164.301 90.2273 164.184 90.4905 163.949 90.7102C163.718 90.9261 163.438 91.0341 163.108 91.0341ZM169.645 101.17C168.793 101.17 168.054 100.983 167.429 100.608C166.804 100.233 166.319 99.7083 165.974 99.0341C165.633 98.3598 165.463 97.572 165.463 96.6705C165.463 95.7689 165.633 94.9792 165.974 94.3011C166.319 93.6231 166.804 93.0966 167.429 92.7216C168.054 92.3466 168.793 92.1591 169.645 92.1591C170.497 92.1591 171.236 92.3466 171.861 92.7216C172.486 93.0966 172.969 93.6231 173.31 94.3011C173.654 94.9792 173.827 95.7689 173.827 96.6705C173.827 97.572 173.654 98.3598 173.31 99.0341C172.969 99.7083 172.486 100.233 171.861 100.608C171.236 100.983 170.497 101.17 169.645 101.17ZM169.656 99.5227C170.118 99.5227 170.505 99.3958 170.815 99.142C171.126 98.8845 171.357 98.5398 171.508 98.108C171.664 97.6761 171.741 97.1951 171.741 96.6648C171.741 96.1307 171.664 95.6477 171.508 95.2159C171.357 94.7803 171.126 94.4337 170.815 94.1761C170.505 93.9186 170.118 93.7898 169.656 93.7898C169.183 93.7898 168.789 93.9186 168.474 94.1761C168.164 94.4337 167.931 94.7803 167.776 95.2159C167.624 95.6477 167.548 96.1307 167.548 96.6648C167.548 97.1951 167.624 97.6761 167.776 98.108C167.931 98.5398 168.164 98.8845 168.474 99.142C168.789 99.3958 169.183 99.5227 169.656 99.5227ZM177.221 95.8864V101H175.164V92.2727H177.13V93.7557H177.233C177.433 93.267 177.753 92.8788 178.193 92.5909C178.636 92.303 179.183 92.1591 179.835 92.1591C180.437 92.1591 180.962 92.2879 181.409 92.5455C181.859 92.803 182.208 93.1761 182.454 93.6648C182.704 94.1534 182.827 94.7462 182.823 95.4432V101H180.767V95.7614C180.767 95.178 180.615 94.7216 180.312 94.392C180.013 94.0625 179.598 93.8977 179.068 93.8977C178.708 93.8977 178.388 93.9773 178.108 94.1364C177.831 94.2917 177.613 94.517 177.454 94.8125C177.299 95.108 177.221 95.4659 177.221 95.8864Z" fill="#2AA241"/>
<path d="M25.622 118.273H26.8322L29.2527 122.347H29.3549L31.7754 118.273H32.9856L29.8322 123.403V127H28.7754V123.403L25.622 118.273ZM35.5414 127.136C34.9505 127.136 34.432 126.996 33.986 126.714C33.5428 126.433 33.1962 126.04 32.9462 125.534C32.6991 125.028 32.5755 124.437 32.5755 123.761C32.5755 123.08 32.6991 122.484 32.9462 121.976C33.1962 121.467 33.5428 121.072 33.986 120.791C34.432 120.51 34.9505 120.369 35.5414 120.369C36.1323 120.369 36.6494 120.51 37.0925 120.791C37.5386 121.072 37.8852 121.467 38.1323 121.976C38.3823 122.484 38.5073 123.08 38.5073 123.761C38.5073 124.437 38.3823 125.028 38.1323 125.534C37.8852 126.04 37.5386 126.433 37.0925 126.714C36.6494 126.996 36.1323 127.136 35.5414 127.136ZM35.5414 126.233C35.9903 126.233 36.3596 126.118 36.6494 125.888C36.9391 125.658 37.1536 125.355 37.2928 124.98C37.432 124.605 37.5016 124.199 37.5016 123.761C37.5016 123.324 37.432 122.916 37.2928 122.538C37.1536 122.161 36.9391 121.855 36.6494 121.622C36.3596 121.389 35.9903 121.273 35.5414 121.273C35.0925 121.273 34.7232 121.389 34.4334 121.622C34.1437 121.855 33.9292 122.161 33.79 122.538C33.6508 122.916 33.5812 123.324 33.5812 123.761C33.5812 124.199 33.6508 124.605 33.79 124.98C33.9292 125.355 34.1437 125.658 34.4334 125.888C34.7232 126.118 35.0925 126.233 35.5414 126.233ZM43.7595 124.324V120.455H44.7652V127H43.7595V125.892H43.6913C43.5379 126.224 43.2992 126.507 42.9754 126.74C42.6515 126.97 42.2424 127.085 41.7481 127.085C41.339 127.085 40.9754 126.996 40.6572 126.817C40.339 126.635 40.089 126.362 39.9072 125.999C39.7254 125.632 39.6345 125.17 39.6345 124.614V120.455H40.6402V124.545C40.6402 125.023 40.7737 125.403 41.0407 125.688C41.3106 125.972 41.6544 126.114 42.072 126.114C42.322 126.114 42.5762 126.05 42.8348 125.922C43.0961 125.794 43.3149 125.598 43.491 125.334C43.67 125.07 43.7595 124.733 43.7595 124.324ZM51.0923 127.153C50.6775 127.153 50.3011 127.075 49.963 126.919C49.6249 126.76 49.3565 126.531 49.1576 126.233C48.9587 125.932 48.8593 125.568 48.8593 125.142C48.8593 124.767 48.9332 124.463 49.0809 124.23C49.2286 123.994 49.4261 123.81 49.6732 123.676C49.9204 123.543 50.1931 123.443 50.4914 123.378C50.7925 123.31 51.0951 123.256 51.3991 123.216C51.7968 123.165 52.1192 123.126 52.3664 123.101C52.6164 123.072 52.7982 123.026 52.9119 122.96C53.0283 122.895 53.0866 122.781 53.0866 122.619V122.585C53.0866 122.165 52.9715 121.838 52.7414 121.605C52.5141 121.372 52.169 121.256 51.7059 121.256C51.2258 121.256 50.8494 121.361 50.5766 121.571C50.3039 121.781 50.1121 122.006 50.0014 122.244L49.0468 121.903C49.2173 121.506 49.4445 121.196 49.7286 120.974C50.0156 120.75 50.3281 120.594 50.6661 120.506C51.007 120.415 51.3423 120.369 51.6718 120.369C51.882 120.369 52.1235 120.395 52.3962 120.446C52.6718 120.494 52.9374 120.595 53.1931 120.749C53.4516 120.902 53.6661 121.134 53.8366 121.443C54.007 121.753 54.0923 122.168 54.0923 122.688V127H53.0866V126.114H53.0354C52.9673 126.256 52.8536 126.408 52.6945 126.57C52.5354 126.732 52.3238 126.869 52.0596 126.983C51.7954 127.097 51.4729 127.153 51.0923 127.153ZM51.2457 126.25C51.6434 126.25 51.9786 126.172 52.2514 126.016C52.5269 125.859 52.7343 125.658 52.8735 125.411C53.0156 125.163 53.0866 124.903 53.0866 124.631V123.71C53.044 123.761 52.9502 123.808 52.8053 123.851C52.6633 123.891 52.4985 123.926 52.311 123.957C52.1264 123.986 51.946 124.011 51.7698 124.034C51.5965 124.054 51.4559 124.071 51.3479 124.085C51.0866 124.119 50.8423 124.175 50.615 124.251C50.3906 124.325 50.2087 124.437 50.0695 124.588C49.9332 124.736 49.865 124.937 49.865 125.193C49.865 125.543 49.9942 125.807 50.2528 125.986C50.5141 126.162 50.8451 126.25 51.2457 126.25ZM55.5198 127V120.455H56.4914V121.443H56.5596C56.6789 121.119 56.8948 120.857 57.2073 120.655C57.5198 120.453 57.8721 120.352 58.2642 120.352C58.338 120.352 58.4304 120.354 58.5411 120.357C58.6519 120.359 58.7358 120.364 58.7926 120.369V121.392C58.7585 121.384 58.6804 121.371 58.5582 121.354C58.4389 121.334 58.3125 121.324 58.1789 121.324C57.8608 121.324 57.5767 121.391 57.3267 121.524C57.0795 121.655 56.8835 121.837 56.7386 122.07C56.5965 122.3 56.5255 122.562 56.5255 122.858V127H55.5198ZM62.1218 127.136C61.4911 127.136 60.9471 126.997 60.4897 126.719C60.0351 126.438 59.6843 126.045 59.4371 125.543C59.1928 125.037 59.0707 124.449 59.0707 123.778C59.0707 123.108 59.1928 122.517 59.4371 122.006C59.6843 121.491 60.028 121.091 60.4684 120.804C60.9116 120.514 61.4286 120.369 62.0195 120.369C62.3604 120.369 62.6971 120.426 63.0295 120.54C63.3618 120.653 63.6644 120.838 63.9371 121.094C64.2099 121.347 64.4272 121.682 64.5891 122.099C64.7511 122.517 64.832 123.031 64.832 123.642V124.068H59.7866V123.199H63.8093C63.8093 122.83 63.7354 122.5 63.5877 122.21C63.4428 121.92 63.2354 121.692 62.9655 121.524C62.6985 121.357 62.3832 121.273 62.0195 121.273C61.6189 121.273 61.2724 121.372 60.9797 121.571C60.69 121.767 60.467 122.023 60.3107 122.338C60.1545 122.653 60.0763 122.991 60.0763 123.352V123.932C60.0763 124.426 60.1616 124.845 60.332 125.189C60.5053 125.53 60.7454 125.79 61.0522 125.969C61.359 126.145 61.7155 126.233 62.1218 126.233C62.386 126.233 62.6246 126.196 62.8377 126.122C63.0536 126.045 63.2397 125.932 63.3959 125.781C63.5522 125.628 63.6729 125.437 63.7582 125.21L64.7297 125.483C64.6275 125.812 64.4556 126.102 64.2141 126.352C63.9726 126.599 63.6743 126.793 63.3192 126.932C62.9641 127.068 62.565 127.136 62.1218 127.136ZM70.847 127.153C70.4322 127.153 70.0558 127.075 69.7177 126.919C69.3797 126.76 69.1112 126.531 68.9123 126.233C68.7135 125.932 68.614 125.568 68.614 125.142C68.614 124.767 68.6879 124.463 68.8356 124.23C68.9833 123.994 69.1808 123.81 69.4279 123.676C69.6751 123.543 69.9478 123.443 70.2461 123.378C70.5473 123.31 70.8498 123.256 71.1538 123.216C71.5515 123.165 71.874 123.126 72.1211 123.101C72.3711 123.072 72.5529 123.026 72.6666 122.96C72.7831 122.895 72.8413 122.781 72.8413 122.619V122.585C72.8413 122.165 72.7262 121.838 72.4961 121.605C72.2689 121.372 71.9237 121.256 71.4606 121.256C70.9805 121.256 70.6041 121.361 70.3314 121.571C70.0586 121.781 69.8669 122.006 69.7561 122.244L68.8015 121.903C68.972 121.506 69.1993 121.196 69.4833 120.974C69.7703 120.75 70.0828 120.594 70.4208 120.506C70.7618 120.415 71.097 120.369 71.4265 120.369C71.6368 120.369 71.8782 120.395 72.151 120.446C72.4265 120.494 72.6922 120.595 72.9478 120.749C73.2064 120.902 73.4208 121.134 73.5913 121.443C73.7618 121.753 73.847 122.168 73.847 122.688V127H72.8413V126.114H72.7902C72.722 126.256 72.6083 126.408 72.4493 126.57C72.2902 126.732 72.0785 126.869 71.8143 126.983C71.5501 127.097 71.2277 127.153 70.847 127.153ZM71.0004 126.25C71.3981 126.25 71.7333 126.172 72.0061 126.016C72.2816 125.859 72.489 125.658 72.6282 125.411C72.7703 125.163 72.8413 124.903 72.8413 124.631V123.71C72.7987 123.761 72.7049 123.808 72.56 123.851C72.418 123.891 72.2532 123.926 72.0657 123.957C71.8811 123.986 71.7007 124.011 71.5245 124.034C71.3512 124.054 71.2106 124.071 71.1027 124.085C70.8413 124.119 70.597 124.175 70.3697 124.251C70.1453 124.325 69.9635 124.437 69.8243 124.588C69.6879 124.736 69.6197 124.937 69.6197 125.193C69.6197 125.543 69.749 125.807 70.0075 125.986C70.2689 126.162 70.5998 126.25 71.0004 126.25ZM75.4109 127V118.273H76.4166V121.494H76.5018C76.5757 121.381 76.678 121.236 76.8087 121.06C76.9422 120.881 77.1325 120.722 77.3797 120.582C77.6297 120.44 77.9677 120.369 78.3939 120.369C78.945 120.369 79.4308 120.507 79.8513 120.783C80.2717 121.058 80.5998 121.449 80.8356 121.955C81.0714 122.46 81.1893 123.057 81.1893 123.744C81.1893 124.438 81.0714 125.038 80.8356 125.547C80.5998 126.053 80.2731 126.445 79.8555 126.723C79.4379 126.999 78.9564 127.136 78.4109 127.136C77.9905 127.136 77.6538 127.067 77.401 126.928C77.1481 126.786 76.9535 126.625 76.8172 126.446C76.6808 126.264 76.5757 126.114 76.5018 125.994H76.3825V127H75.4109ZM76.3996 123.727C76.3996 124.222 76.472 124.658 76.6169 125.036C76.7618 125.411 76.9734 125.705 77.2518 125.918C77.5302 126.128 77.8712 126.233 78.2746 126.233C78.695 126.233 79.0459 126.122 79.3271 125.901C79.6112 125.676 79.8243 125.375 79.9663 124.997C80.1112 124.616 80.1837 124.193 80.1837 123.727C80.1837 123.267 80.1126 122.852 79.9706 122.483C79.8314 122.111 79.6197 121.817 79.3356 121.601C79.0544 121.382 78.7007 121.273 78.2746 121.273C77.8655 121.273 77.5217 121.376 77.2433 121.584C76.9649 121.788 76.7547 122.075 76.6126 122.445C76.4706 122.811 76.3996 123.239 76.3996 123.727ZM84.9788 127.136C84.3879 127.136 83.8694 126.996 83.4234 126.714C82.9802 126.433 82.6336 126.04 82.3836 125.534C82.1364 125.028 82.0129 124.437 82.0129 123.761C82.0129 123.08 82.1364 122.484 82.3836 121.976C82.6336 121.467 82.9802 121.072 83.4234 120.791C83.8694 120.51 84.3879 120.369 84.9788 120.369C85.5697 120.369 86.0867 120.51 86.5299 120.791C86.9759 121.072 87.3225 121.467 87.5697 121.976C87.8197 122.484 87.9447 123.08 87.9447 123.761C87.9447 124.437 87.8197 125.028 87.5697 125.534C87.3225 126.04 86.9759 126.433 86.5299 126.714C86.0867 126.996 85.5697 127.136 84.9788 127.136ZM84.9788 126.233C85.4276 126.233 85.797 126.118 86.0867 125.888C86.3765 125.658 86.591 125.355 86.7302 124.98C86.8694 124.605 86.939 124.199 86.939 123.761C86.939 123.324 86.8694 122.916 86.7302 122.538C86.591 122.161 86.3765 121.855 86.0867 121.622C85.797 121.389 85.4276 121.273 84.9788 121.273C84.5299 121.273 84.1606 121.389 83.8708 121.622C83.581 121.855 83.3666 122.161 83.2274 122.538C83.0882 122.916 83.0185 123.324 83.0185 123.761C83.0185 124.199 83.0882 124.605 83.2274 124.98C83.3666 125.355 83.581 125.658 83.8708 125.888C84.1606 126.118 84.5299 126.233 84.9788 126.233ZM93.1968 124.324V120.455H94.2025V127H93.1968V125.892H93.1287C92.9753 126.224 92.7366 126.507 92.4128 126.74C92.0889 126.97 91.6798 127.085 91.1855 127.085C90.7764 127.085 90.4128 126.996 90.0946 126.817C89.7764 126.635 89.5264 126.362 89.3446 125.999C89.1628 125.632 89.0718 125.17 89.0718 124.614V120.455H90.0775V124.545C90.0775 125.023 90.211 125.403 90.4781 125.688C90.748 125.972 91.0917 126.114 91.5093 126.114C91.7593 126.114 92.0136 126.05 92.2721 125.922C92.5335 125.794 92.7522 125.598 92.9284 125.334C93.1074 125.07 93.1968 124.733 93.1968 124.324ZM98.4831 120.455V121.307H95.091V120.455H98.4831ZM96.0797 118.886H97.0854V125.125C97.0854 125.409 97.1266 125.622 97.2089 125.764C97.2942 125.903 97.4021 125.997 97.5328 126.045C97.6663 126.091 97.807 126.114 97.9547 126.114C98.0655 126.114 98.1564 126.108 98.2274 126.097C98.2984 126.082 98.3553 126.071 98.3979 126.062L98.6024 126.966C98.5342 126.991 98.4391 127.017 98.3169 127.043C98.1947 127.071 98.0399 127.085 97.8524 127.085C97.5683 127.085 97.2899 127.024 97.0172 126.902C96.7473 126.78 96.5229 126.594 96.3439 126.344C96.1678 126.094 96.0797 125.778 96.0797 125.398V118.886ZM105.401 120.455V121.307H102.009V120.455H105.401ZM102.998 118.886H104.004V125.125C104.004 125.409 104.045 125.622 104.127 125.764C104.213 125.903 104.321 125.997 104.451 126.045C104.585 126.091 104.725 126.114 104.873 126.114C104.984 126.114 105.075 126.108 105.146 126.097C105.217 126.082 105.274 126.071 105.316 126.062L105.521 126.966C105.453 126.991 105.357 127.017 105.235 127.043C105.113 127.071 104.958 127.085 104.771 127.085C104.487 127.085 104.208 127.024 103.936 126.902C103.666 126.78 103.441 126.594 103.262 126.344C103.086 126.094 102.998 125.778 102.998 125.398V118.886ZM109.095 127.136C108.504 127.136 107.986 126.996 107.54 126.714C107.096 126.433 106.75 126.04 106.5 125.534C106.253 125.028 106.129 124.437 106.129 123.761C106.129 123.08 106.253 122.484 106.5 121.976C106.75 121.467 107.096 121.072 107.54 120.791C107.986 120.51 108.504 120.369 109.095 120.369C109.686 120.369 110.203 120.51 110.646 120.791C111.092 121.072 111.439 121.467 111.686 121.976C111.936 122.484 112.061 123.08 112.061 123.761C112.061 124.437 111.936 125.028 111.686 125.534C111.439 126.04 111.092 126.433 110.646 126.714C110.203 126.996 109.686 127.136 109.095 127.136ZM109.095 126.233C109.544 126.233 109.913 126.118 110.203 125.888C110.493 125.658 110.707 125.355 110.846 124.98C110.986 124.605 111.055 124.199 111.055 123.761C111.055 123.324 110.986 122.916 110.846 122.538C110.707 122.161 110.493 121.855 110.203 121.622C109.913 121.389 109.544 121.273 109.095 121.273C108.646 121.273 108.277 121.389 107.987 121.622C107.697 121.855 107.483 122.161 107.344 122.538C107.204 122.916 107.135 123.324 107.135 123.761C107.135 124.199 107.204 124.605 107.344 124.98C107.483 125.355 107.697 125.658 107.987 125.888C108.277 126.118 108.646 126.233 109.095 126.233ZM120.791 121.92L119.888 122.176C119.831 122.026 119.747 121.879 119.637 121.737C119.529 121.592 119.381 121.473 119.193 121.379C119.006 121.286 118.766 121.239 118.473 121.239C118.073 121.239 117.739 121.331 117.472 121.516C117.208 121.697 117.076 121.929 117.076 122.21C117.076 122.46 117.166 122.658 117.348 122.803C117.53 122.947 117.814 123.068 118.201 123.165L119.172 123.403C119.757 123.545 120.193 123.763 120.48 124.055C120.767 124.345 120.911 124.719 120.911 125.176C120.911 125.551 120.803 125.886 120.587 126.182C120.374 126.477 120.076 126.71 119.692 126.881C119.309 127.051 118.862 127.136 118.354 127.136C117.686 127.136 117.134 126.991 116.696 126.702C116.259 126.412 115.982 125.989 115.865 125.432L116.82 125.193C116.911 125.545 117.083 125.81 117.335 125.986C117.591 126.162 117.925 126.25 118.337 126.25C118.806 126.25 119.178 126.151 119.453 125.952C119.732 125.75 119.871 125.509 119.871 125.227C119.871 125 119.791 124.81 119.632 124.656C119.473 124.5 119.229 124.384 118.899 124.307L117.809 124.051C117.209 123.909 116.769 123.689 116.487 123.391C116.209 123.089 116.07 122.713 116.07 122.261C116.07 121.892 116.174 121.565 116.381 121.281C116.591 120.997 116.877 120.774 117.237 120.612C117.601 120.45 118.013 120.369 118.473 120.369C119.121 120.369 119.63 120.511 119.999 120.795C120.371 121.08 120.635 121.455 120.791 121.92ZM126.142 124.324V120.455H127.147V127H126.142V125.892H126.073C125.92 126.224 125.681 126.507 125.358 126.74C125.034 126.97 124.625 127.085 124.13 127.085C123.721 127.085 123.358 126.996 123.039 126.817C122.721 126.635 122.471 126.362 122.289 125.999C122.108 125.632 122.017 125.17 122.017 124.614V120.455H123.022V124.545C123.022 125.023 123.156 125.403 123.423 125.688C123.693 125.972 124.037 126.114 124.454 126.114C124.704 126.114 124.958 126.05 125.217 125.922C125.478 125.794 125.697 125.598 125.873 125.334C126.052 125.07 126.142 124.733 126.142 124.324ZM128.718 127V118.273H129.723V121.494H129.809C129.882 121.381 129.985 121.236 130.115 121.06C130.249 120.881 130.439 120.722 130.686 120.582C130.936 120.44 131.274 120.369 131.701 120.369C132.252 120.369 132.738 120.507 133.158 120.783C133.578 121.058 133.907 121.449 134.142 121.955C134.378 122.46 134.496 123.057 134.496 123.744C134.496 124.438 134.378 125.038 134.142 125.547C133.907 126.053 133.58 126.445 133.162 126.723C132.745 126.999 132.263 127.136 131.718 127.136C131.297 127.136 130.961 127.067 130.708 126.928C130.455 126.786 130.26 126.625 130.124 126.446C129.988 126.264 129.882 126.114 129.809 125.994H129.689V127H128.718ZM129.706 123.727C129.706 124.222 129.779 124.658 129.924 125.036C130.068 125.411 130.28 125.705 130.559 125.918C130.837 126.128 131.178 126.233 131.581 126.233C132.002 126.233 132.353 126.122 132.634 125.901C132.918 125.676 133.131 125.375 133.273 124.997C133.418 124.616 133.49 124.193 133.49 123.727C133.49 123.267 133.419 122.852 133.277 122.483C133.138 122.111 132.926 121.817 132.642 121.601C132.361 121.382 132.007 121.273 131.581 121.273C131.172 121.273 130.828 121.376 130.55 121.584C130.272 121.788 130.061 122.075 129.919 122.445C129.777 122.811 129.706 123.239 129.706 123.727ZM135.626 127V120.455H136.598V121.477H136.683C136.82 121.128 137.04 120.857 137.344 120.663C137.648 120.467 138.013 120.369 138.439 120.369C138.871 120.369 139.23 120.467 139.517 120.663C139.807 120.857 140.033 121.128 140.195 121.477H140.263C140.43 121.139 140.682 120.871 141.017 120.672C141.352 120.47 141.754 120.369 142.223 120.369C142.808 120.369 143.287 120.553 143.659 120.919C144.031 121.283 144.217 121.849 144.217 122.619V127H143.212V122.619C143.212 122.136 143.08 121.791 142.815 121.584C142.551 121.376 142.24 121.273 141.882 121.273C141.422 121.273 141.065 121.412 140.812 121.69C140.56 121.966 140.433 122.315 140.433 122.739V127H139.41V122.517C139.41 122.145 139.29 121.845 139.048 121.618C138.807 121.388 138.496 121.273 138.115 121.273C137.854 121.273 137.609 121.342 137.382 121.482C137.158 121.621 136.976 121.814 136.837 122.061C136.7 122.305 136.632 122.588 136.632 122.909V127H135.626ZM145.648 127V120.455H146.654V127H145.648ZM146.159 119.364C145.963 119.364 145.794 119.297 145.652 119.163C145.513 119.03 145.444 118.869 145.444 118.682C145.444 118.494 145.513 118.334 145.652 118.2C145.794 118.067 145.963 118 146.159 118C146.355 118 146.523 118.067 146.662 118.2C146.804 118.334 146.875 118.494 146.875 118.682C146.875 118.869 146.804 119.03 146.662 119.163C146.523 119.297 146.355 119.364 146.159 119.364ZM150.934 120.455V121.307H147.542V120.455H150.934ZM148.531 118.886H149.537V125.125C149.537 125.409 149.578 125.622 149.66 125.764C149.745 125.903 149.853 125.997 149.984 126.045C150.118 126.091 150.258 126.114 150.406 126.114C150.517 126.114 150.608 126.108 150.679 126.097C150.75 126.082 150.807 126.071 150.849 126.062L151.054 126.966C150.985 126.991 150.89 127.017 150.768 127.043C150.646 127.071 150.491 127.085 150.304 127.085C150.02 127.085 149.741 127.024 149.468 126.902C149.199 126.78 148.974 126.594 148.795 126.344C148.619 126.094 148.531 125.778 148.531 125.398V118.886ZM157.665 127.136C157.052 127.136 156.523 126.991 156.08 126.702C155.637 126.412 155.296 126.013 155.057 125.504C154.819 124.996 154.699 124.415 154.699 123.761C154.699 123.097 154.821 122.51 155.066 122.001C155.313 121.49 155.657 121.091 156.097 120.804C156.54 120.514 157.057 120.369 157.648 120.369C158.108 120.369 158.523 120.455 158.892 120.625C159.262 120.795 159.564 121.034 159.8 121.341C160.036 121.648 160.182 122.006 160.239 122.415H159.233C159.157 122.116 158.986 121.852 158.722 121.622C158.461 121.389 158.108 121.273 157.665 121.273C157.273 121.273 156.929 121.375 156.634 121.58C156.341 121.781 156.113 122.067 155.948 122.436C155.786 122.803 155.705 123.233 155.705 123.727C155.705 124.233 155.785 124.673 155.944 125.048C156.106 125.423 156.333 125.714 156.625 125.922C156.921 126.129 157.267 126.233 157.665 126.233C157.927 126.233 158.164 126.188 158.377 126.097C158.59 126.006 158.77 125.875 158.918 125.705C159.066 125.534 159.171 125.33 159.233 125.091H160.239C160.182 125.477 160.042 125.825 159.817 126.135C159.596 126.442 159.302 126.686 158.935 126.868C158.571 127.047 158.148 127.136 157.665 127.136ZM165.426 124.324V120.455H166.432V127H165.426V125.892H165.358C165.205 126.224 164.966 126.507 164.642 126.74C164.318 126.97 163.909 127.085 163.415 127.085C163.006 127.085 162.642 126.996 162.324 126.817C162.006 126.635 161.756 126.362 161.574 125.999C161.392 125.632 161.301 125.17 161.301 124.614V120.455H162.307V124.545C162.307 125.023 162.44 125.403 162.708 125.688C162.977 125.972 163.321 126.114 163.739 126.114C163.989 126.114 164.243 126.05 164.502 125.922C164.763 125.794 164.982 125.598 165.158 125.334C165.337 125.07 165.426 124.733 165.426 124.324ZM172.502 121.92L171.599 122.176C171.542 122.026 171.458 121.879 171.347 121.737C171.239 121.592 171.092 121.473 170.904 121.379C170.717 121.286 170.477 121.239 170.184 121.239C169.784 121.239 169.45 121.331 169.183 121.516C168.918 121.697 168.786 121.929 168.786 122.21C168.786 122.46 168.877 122.658 169.059 122.803C169.241 122.947 169.525 123.068 169.911 123.165L170.883 123.403C171.468 123.545 171.904 123.763 172.191 124.055C172.478 124.345 172.622 124.719 172.622 125.176C172.622 125.551 172.514 125.886 172.298 126.182C172.085 126.477 171.786 126.71 171.403 126.881C171.019 127.051 170.573 127.136 170.065 127.136C169.397 127.136 168.845 126.991 168.407 126.702C167.97 126.412 167.693 125.989 167.576 125.432L168.531 125.193C168.622 125.545 168.793 125.81 169.046 125.986C169.302 126.162 169.636 126.25 170.048 126.25C170.516 126.25 170.889 126.151 171.164 125.952C171.443 125.75 171.582 125.509 171.582 125.227C171.582 125 171.502 124.81 171.343 124.656C171.184 124.5 170.94 124.384 170.61 124.307L169.519 124.051C168.92 123.909 168.48 123.689 168.198 123.391C167.92 123.089 167.781 122.713 167.781 122.261C167.781 121.892 167.884 121.565 168.092 121.281C168.302 120.997 168.587 120.774 168.948 120.612C169.312 120.45 169.724 120.369 170.184 120.369C170.832 120.369 171.34 120.511 171.71 120.795C172.082 121.08 172.346 121.455 172.502 121.92ZM176.574 120.455V121.307H173.182V120.455H176.574ZM174.171 118.886H175.176V125.125C175.176 125.409 175.217 125.622 175.3 125.764C175.385 125.903 175.493 125.997 175.624 126.045C175.757 126.091 175.898 126.114 176.046 126.114C176.156 126.114 176.247 126.108 176.318 126.097C176.389 126.082 176.446 126.071 176.489 126.062L176.693 126.966C176.625 126.991 176.53 127.017 176.408 127.043C176.286 127.071 176.131 127.085 175.943 127.085C175.659 127.085 175.381 127.024 175.108 126.902C174.838 126.78 174.614 126.594 174.435 126.344C174.259 126.094 174.171 125.778 174.171 125.398V118.886ZM180.268 127.136C179.677 127.136 179.158 126.996 178.712 126.714C178.269 126.433 177.922 126.04 177.672 125.534C177.425 125.028 177.302 124.437 177.302 123.761C177.302 123.08 177.425 122.484 177.672 121.976C177.922 121.467 178.269 121.072 178.712 120.791C179.158 120.51 179.677 120.369 180.268 120.369C180.859 120.369 181.376 120.51 181.819 120.791C182.265 121.072 182.611 121.467 182.859 121.976C183.109 122.484 183.234 123.08 183.234 123.761C183.234 124.437 183.109 125.028 182.859 125.534C182.611 126.04 182.265 126.433 181.819 126.714C181.376 126.996 180.859 127.136 180.268 127.136ZM180.268 126.233C180.716 126.233 181.086 126.118 181.376 125.888C181.665 125.658 181.88 125.355 182.019 124.98C182.158 124.605 182.228 124.199 182.228 123.761C182.228 123.324 182.158 122.916 182.019 122.538C181.88 122.161 181.665 121.855 181.376 121.622C181.086 121.389 180.716 121.273 180.268 121.273C179.819 121.273 179.449 121.389 179.16 121.622C178.87 121.855 178.655 122.161 178.516 122.538C178.377 122.916 178.307 123.324 178.307 123.761C178.307 124.199 178.377 124.605 178.516 124.98C178.655 125.355 178.87 125.658 179.16 125.888C179.449 126.118 179.819 126.233 180.268 126.233ZM184.361 127V120.455H185.332V121.477H185.417C185.554 121.128 185.774 120.857 186.078 120.663C186.382 120.467 186.747 120.369 187.173 120.369C187.605 120.369 187.964 120.467 188.251 120.663C188.541 120.857 188.767 121.128 188.929 121.477H188.997C189.165 121.139 189.416 120.871 189.751 120.672C190.087 120.47 190.488 120.369 190.957 120.369C191.542 120.369 192.021 120.553 192.393 120.919C192.765 121.283 192.952 121.849 192.952 122.619V127H191.946V122.619C191.946 122.136 191.814 121.791 191.55 121.584C191.285 121.376 190.974 121.273 190.616 121.273C190.156 121.273 189.8 121.412 189.547 121.69C189.294 121.966 189.167 122.315 189.167 122.739V127H188.145V122.517C188.145 122.145 188.024 121.845 187.783 121.618C187.541 121.388 187.23 121.273 186.849 121.273C186.588 121.273 186.344 121.342 186.116 121.482C185.892 121.621 185.71 121.814 185.571 122.061C185.435 122.305 185.366 122.588 185.366 122.909V127H184.361ZM197.127 127.136C196.496 127.136 195.952 126.997 195.495 126.719C195.04 126.438 194.689 126.045 194.442 125.543C194.198 125.037 194.076 124.449 194.076 123.778C194.076 123.108 194.198 122.517 194.442 122.006C194.689 121.491 195.033 121.091 195.473 120.804C195.916 120.514 196.433 120.369 197.024 120.369C197.365 120.369 197.702 120.426 198.034 120.54C198.367 120.653 198.669 120.838 198.942 121.094C199.215 121.347 199.432 121.682 199.594 122.099C199.756 122.517 199.837 123.031 199.837 123.642V124.068H194.791V123.199H198.814C198.814 122.83 198.74 122.5 198.593 122.21C198.448 121.92 198.24 121.692 197.97 121.524C197.703 121.357 197.388 121.273 197.024 121.273C196.624 121.273 196.277 121.372 195.985 121.571C195.695 121.767 195.472 122.023 195.316 122.338C195.159 122.653 195.081 122.991 195.081 123.352V123.932C195.081 124.426 195.166 124.845 195.337 125.189C195.51 125.53 195.75 125.79 196.057 125.969C196.364 126.145 196.72 126.233 197.127 126.233C197.391 126.233 197.629 126.196 197.843 126.122C198.058 126.045 198.245 125.932 198.401 125.781C198.557 125.628 198.678 125.437 198.763 125.21L199.735 125.483C199.632 125.812 199.46 126.102 199.219 126.352C198.978 126.599 198.679 126.793 198.324 126.932C197.969 127.068 197.57 127.136 197.127 127.136ZM200.959 127V120.455H201.93V121.443H201.998C202.118 121.119 202.334 120.857 202.646 120.655C202.959 120.453 203.311 120.352 203.703 120.352C203.777 120.352 203.869 120.354 203.98 120.357C204.091 120.359 204.175 120.364 204.231 120.369V121.392C204.197 121.384 204.119 121.371 203.997 121.354C203.878 121.334 203.751 121.324 203.618 121.324C203.3 121.324 203.016 121.391 202.766 121.524C202.518 121.655 202.322 121.837 202.177 122.07C202.035 122.3 201.964 122.562 201.964 122.858V127H200.959ZM210.454 127.136C209.909 127.136 209.427 126.999 209.01 126.723C208.592 126.445 208.265 126.053 208.029 125.547C207.794 125.038 207.676 124.438 207.676 123.744C207.676 123.057 207.794 122.46 208.029 121.955C208.265 121.449 208.593 121.058 209.014 120.783C209.434 120.507 209.92 120.369 210.471 120.369C210.897 120.369 211.234 120.44 211.481 120.582C211.731 120.722 211.921 120.881 212.052 121.06C212.186 121.236 212.289 121.381 212.363 121.494H212.448V118.273H213.454V127H212.483V125.994H212.363C212.289 126.114 212.184 126.264 212.048 126.446C211.912 126.625 211.717 126.786 211.464 126.928C211.211 127.067 210.875 127.136 210.454 127.136ZM210.591 126.233C210.994 126.233 211.335 126.128 211.613 125.918C211.892 125.705 212.103 125.411 212.248 125.036C212.393 124.658 212.466 124.222 212.466 123.727C212.466 123.239 212.394 122.811 212.252 122.445C212.11 122.075 211.9 121.788 211.622 121.584C211.343 121.376 211 121.273 210.591 121.273C210.164 121.273 209.809 121.382 209.525 121.601C209.244 121.817 209.032 122.111 208.89 122.483C208.751 122.852 208.681 123.267 208.681 123.727C208.681 124.193 208.752 124.616 208.894 124.997C209.039 125.375 209.252 125.676 209.534 125.901C209.818 126.122 210.17 126.233 210.591 126.233ZM217.772 127.136C217.141 127.136 216.597 126.997 216.14 126.719C215.685 126.438 215.335 126.045 215.087 125.543C214.843 125.037 214.721 124.449 214.721 123.778C214.721 123.108 214.843 122.517 215.087 122.006C215.335 121.491 215.678 121.091 216.119 120.804C216.562 120.514 217.079 120.369 217.67 120.369C218.011 120.369 218.347 120.426 218.68 120.54C219.012 120.653 219.315 120.838 219.587 121.094C219.86 121.347 220.077 121.682 220.239 122.099C220.401 122.517 220.482 123.031 220.482 123.642V124.068H215.437V123.199H219.46C219.46 122.83 219.386 122.5 219.238 122.21C219.093 121.92 218.886 121.692 218.616 121.524C218.349 121.357 218.033 121.273 217.67 121.273C217.269 121.273 216.923 121.372 216.63 121.571C216.34 121.767 216.117 122.023 215.961 122.338C215.805 122.653 215.727 122.991 215.727 123.352V123.932C215.727 124.426 215.812 124.845 215.982 125.189C216.156 125.53 216.396 125.79 216.702 125.969C217.009 126.145 217.366 126.233 217.772 126.233C218.036 126.233 218.275 126.196 218.488 126.122C218.704 126.045 218.89 125.932 219.046 125.781C219.202 125.628 219.323 125.437 219.408 125.21L220.38 125.483C220.278 125.812 220.106 126.102 219.864 126.352C219.623 126.599 219.325 126.793 218.969 126.932C218.614 127.068 218.215 127.136 217.772 127.136ZM224.451 120.455V121.307H221.059V120.455H224.451ZM222.047 118.886H223.053V125.125C223.053 125.409 223.094 125.622 223.177 125.764C223.262 125.903 223.37 125.997 223.5 126.045C223.634 126.091 223.775 126.114 223.922 126.114C224.033 126.114 224.124 126.108 224.195 126.097C224.266 126.082 224.323 126.071 224.365 126.062L224.57 126.966C224.502 126.991 224.407 127.017 224.284 127.043C224.162 127.071 224.007 127.085 223.82 127.085C223.536 127.085 223.257 127.024 222.985 126.902C222.715 126.78 222.49 126.594 222.311 126.344C222.135 126.094 222.047 125.778 222.047 125.398V118.886ZM227.482 127.153C227.067 127.153 226.69 127.075 226.352 126.919C226.014 126.76 225.746 126.531 225.547 126.233C225.348 125.932 225.249 125.568 225.249 125.142C225.249 124.767 225.322 124.463 225.47 124.23C225.618 123.994 225.815 123.81 226.063 123.676C226.31 123.543 226.582 123.443 226.881 123.378C227.182 123.31 227.484 123.256 227.788 123.216C228.186 123.165 228.509 123.126 228.756 123.101C229.006 123.072 229.188 123.026 229.301 122.96C229.418 122.895 229.476 122.781 229.476 122.619V122.585C229.476 122.165 229.361 121.838 229.131 121.605C228.903 121.372 228.558 121.256 228.095 121.256C227.615 121.256 227.239 121.361 226.966 121.571C226.693 121.781 226.501 122.006 226.391 122.244L225.436 121.903C225.607 121.506 225.834 121.196 226.118 120.974C226.405 120.75 226.717 120.594 227.055 120.506C227.396 120.415 227.732 120.369 228.061 120.369C228.271 120.369 228.513 120.395 228.786 120.446C229.061 120.494 229.327 120.595 229.582 120.749C229.841 120.902 230.055 121.134 230.226 121.443C230.396 121.753 230.482 122.168 230.482 122.688V127H229.476V126.114H229.425C229.357 126.256 229.243 126.408 229.084 126.57C228.925 126.732 228.713 126.869 228.449 126.983C228.185 127.097 227.862 127.153 227.482 127.153ZM227.635 126.25C228.033 126.25 228.368 126.172 228.641 126.016C228.916 125.859 229.124 125.658 229.263 125.411C229.405 125.163 229.476 124.903 229.476 124.631V123.71C229.433 123.761 229.34 123.808 229.195 123.851C229.053 123.891 228.888 123.926 228.7 123.957C228.516 123.986 228.335 124.011 228.159 124.034C227.986 124.054 227.845 124.071 227.737 124.085C227.476 124.119 227.232 124.175 227.004 124.251C226.78 124.325 226.598 124.437 226.459 124.588C226.322 124.736 226.254 124.937 226.254 125.193C226.254 125.543 226.384 125.807 226.642 125.986C226.903 126.162 227.234 126.25 227.635 126.25ZM231.909 127V120.455H232.915V127H231.909ZM232.421 119.364C232.225 119.364 232.055 119.297 231.913 119.163C231.774 119.03 231.705 118.869 231.705 118.682C231.705 118.494 231.774 118.334 231.913 118.2C232.055 118.067 232.225 118 232.421 118C232.617 118 232.784 118.067 232.923 118.2C233.065 118.334 233.136 118.494 233.136 118.682C233.136 118.869 233.065 119.03 232.923 119.163C232.784 119.297 232.617 119.364 232.421 119.364ZM235.354 118.273V127H234.349V118.273H235.354ZM241.425 121.92L240.521 122.176C240.465 122.026 240.381 121.879 240.27 121.737C240.162 121.592 240.014 121.473 239.827 121.379C239.639 121.286 239.399 121.239 239.107 121.239C238.706 121.239 238.372 121.331 238.105 121.516C237.841 121.697 237.709 121.929 237.709 122.21C237.709 122.46 237.8 122.658 237.982 122.803C238.163 122.947 238.448 123.068 238.834 123.165L239.806 123.403C240.391 123.545 240.827 123.763 241.114 124.055C241.401 124.345 241.544 124.719 241.544 125.176C241.544 125.551 241.436 125.886 241.22 126.182C241.007 126.477 240.709 126.71 240.325 126.881C239.942 127.051 239.496 127.136 238.987 127.136C238.32 127.136 237.767 126.991 237.33 126.702C236.892 126.412 236.615 125.989 236.499 125.432L237.453 125.193C237.544 125.545 237.716 125.81 237.969 125.986C238.225 126.162 238.558 126.25 238.97 126.25C239.439 126.25 239.811 126.151 240.087 125.952C240.365 125.75 240.504 125.509 240.504 125.227C240.504 125 240.425 124.81 240.266 124.656C240.107 124.5 239.862 124.384 239.533 124.307L238.442 124.051C237.842 123.909 237.402 123.689 237.121 123.391C236.842 123.089 236.703 122.713 236.703 122.261C236.703 121.892 236.807 121.565 237.014 121.281C237.225 120.997 237.51 120.774 237.871 120.612C238.234 120.45 238.646 120.369 239.107 120.369C239.754 120.369 240.263 120.511 240.632 120.795C241.004 121.08 241.269 121.455 241.425 121.92ZM244.15 125.807L244.082 126.267C244.034 126.591 243.96 126.938 243.86 127.307C243.764 127.676 243.663 128.024 243.558 128.351C243.453 128.678 243.366 128.938 243.298 129.131H242.531C242.568 128.949 242.616 128.709 242.676 128.411C242.735 128.112 242.795 127.778 242.855 127.409C242.917 127.043 242.968 126.668 243.008 126.284L243.059 125.807H244.15ZM44.1713 145H43.0633L46.2679 136.273H47.3588L50.5633 145H49.4554L46.8474 137.653H46.7792L44.1713 145ZM44.5804 141.591H49.0463V142.528H44.5804V141.591ZM51.3783 145V138.455H52.3499V139.443H52.4181C52.5374 139.119 52.7533 138.857 53.0658 138.655C53.3783 138.453 53.7306 138.352 54.1227 138.352C54.1965 138.352 54.2889 138.354 54.3997 138.357C54.5104 138.359 54.5943 138.364 54.6511 138.369V139.392C54.617 139.384 54.5389 139.371 54.4167 139.354C54.2974 139.334 54.171 139.324 54.0374 139.324C53.7193 139.324 53.4352 139.391 53.1852 139.524C52.938 139.655 52.742 139.837 52.5971 140.07C52.455 140.3 52.384 140.562 52.384 140.858V145H51.3783ZM57.9803 145.136C57.3496 145.136 56.8056 144.997 56.3482 144.719C55.8936 144.438 55.5428 144.045 55.2956 143.543C55.0513 143.037 54.9292 142.449 54.9292 141.778C54.9292 141.108 55.0513 140.517 55.2956 140.006C55.5428 139.491 55.8865 139.091 56.3269 138.804C56.7701 138.514 57.2871 138.369 57.878 138.369C58.2189 138.369 58.5556 138.426 58.888 138.54C59.2203 138.653 59.5229 138.838 59.7956 139.094C60.0684 139.347 60.2857 139.682 60.4476 140.099C60.6095 140.517 60.6905 141.031 60.6905 141.642V142.068H55.6451V141.199H59.6678C59.6678 140.83 59.5939 140.5 59.4462 140.21C59.3013 139.92 59.0939 139.692 58.824 139.524C58.557 139.357 58.2417 139.273 57.878 139.273C57.4774 139.273 57.1309 139.372 56.8382 139.571C56.5485 139.767 56.3255 140.023 56.1692 140.338C56.013 140.653 55.9348 140.991 55.9348 141.352V141.932C55.9348 142.426 56.0201 142.845 56.1905 143.189C56.3638 143.53 56.6039 143.79 56.9107 143.969C57.2175 144.145 57.574 144.233 57.9803 144.233C58.2445 144.233 58.4831 144.196 58.6962 144.122C58.9121 144.045 59.0982 143.932 59.2544 143.781C59.4107 143.628 59.5314 143.437 59.6167 143.21L60.5882 143.483C60.486 143.812 60.3141 144.102 60.0726 144.352C59.8311 144.599 59.5328 144.793 59.1777 144.932C58.8226 145.068 58.4235 145.136 57.9803 145.136ZM65.4271 147.455C65.2566 147.455 65.1046 147.44 64.9711 147.412C64.8376 147.386 64.7453 147.361 64.6941 147.335L64.9498 146.449C65.1941 146.511 65.41 146.534 65.5975 146.517C65.785 146.5 65.9512 146.416 66.0961 146.266C66.2438 146.118 66.3788 145.878 66.5009 145.545L66.6884 145.034L64.268 138.455H65.3589L67.1657 143.67H67.2339L69.0407 138.455H70.1316L67.3532 145.955C67.2282 146.293 67.0734 146.572 66.8887 146.794C66.7041 147.018 66.4896 147.185 66.2453 147.293C66.0038 147.401 65.731 147.455 65.4271 147.455ZM73.4757 145.136C72.8848 145.136 72.3664 144.996 71.9203 144.714C71.4772 144.433 71.1306 144.04 70.8806 143.534C70.6334 143.028 70.5098 142.437 70.5098 141.761C70.5098 141.08 70.6334 140.484 70.8806 139.976C71.1306 139.467 71.4772 139.072 71.9203 138.791C72.3664 138.51 72.8848 138.369 73.4757 138.369C74.0667 138.369 74.5837 138.51 75.0269 138.791C75.4729 139.072 75.8195 139.467 76.0667 139.976C76.3167 140.484 76.4417 141.08 76.4417 141.761C76.4417 142.437 76.3167 143.028 76.0667 143.534C75.8195 144.04 75.4729 144.433 75.0269 144.714C74.5837 144.996 74.0667 145.136 73.4757 145.136ZM73.4757 144.233C73.9246 144.233 74.2939 144.118 74.5837 143.888C74.8735 143.658 75.088 143.355 75.2272 142.98C75.3664 142.605 75.436 142.199 75.436 141.761C75.436 141.324 75.3664 140.916 75.2272 140.538C75.088 140.161 74.8735 139.855 74.5837 139.622C74.2939 139.389 73.9246 139.273 73.4757 139.273C73.0269 139.273 72.6576 139.389 72.3678 139.622C72.078 139.855 71.8635 140.161 71.7243 140.538C71.5851 140.916 71.5155 141.324 71.5155 141.761C71.5155 142.199 71.5851 142.605 71.7243 142.98C71.8635 143.355 72.078 143.658 72.3678 143.888C72.6576 144.118 73.0269 144.233 73.4757 144.233ZM81.6938 142.324V138.455H82.6995V145H81.6938V143.892H81.6256C81.4722 144.224 81.2336 144.507 80.9097 144.74C80.5859 144.97 80.1768 145.085 79.6825 145.085C79.2734 145.085 78.9097 144.996 78.5915 144.817C78.2734 144.635 78.0234 144.362 77.8415 143.999C77.6597 143.632 77.5688 143.17 77.5688 142.614V138.455H78.5745V142.545C78.5745 143.023 78.708 143.403 78.9751 143.688C79.245 143.972 79.5887 144.114 80.0063 144.114C80.2563 144.114 80.5106 144.05 80.7691 143.922C81.0305 143.794 81.2492 143.598 81.4254 143.334C81.6043 143.07 81.6938 142.733 81.6938 142.324ZM91.7368 139.92L90.8334 140.176C90.7766 140.026 90.6928 139.879 90.582 139.737C90.474 139.592 90.3263 139.473 90.1388 139.379C89.9513 139.286 89.7113 139.239 89.4187 139.239C89.0181 139.239 88.6843 139.331 88.4172 139.516C88.153 139.697 88.0209 139.929 88.0209 140.21C88.0209 140.46 88.1118 140.658 88.2937 140.803C88.4755 140.947 88.7596 141.068 89.1459 141.165L90.1175 141.403C90.7027 141.545 91.1388 141.763 91.4258 142.055C91.7127 142.345 91.8562 142.719 91.8562 143.176C91.8562 143.551 91.7482 143.886 91.5323 144.182C91.3192 144.477 91.0209 144.71 90.6374 144.881C90.2539 145.051 89.8079 145.136 89.2993 145.136C88.6317 145.136 88.0792 144.991 87.6417 144.702C87.2042 144.412 86.9272 143.989 86.8107 143.432L87.7652 143.193C87.8562 143.545 88.028 143.81 88.2809 143.986C88.5365 144.162 88.8704 144.25 89.2823 144.25C89.751 144.25 90.1232 144.151 90.3988 143.952C90.6772 143.75 90.8164 143.509 90.8164 143.227C90.8164 143 90.7368 142.81 90.5777 142.656C90.4187 142.5 90.1743 142.384 89.8448 142.307L88.7539 142.051C88.1544 141.909 87.7141 141.689 87.4329 141.391C87.1544 141.089 87.0152 140.713 87.0152 140.261C87.0152 139.892 87.1189 139.565 87.3263 139.281C87.5365 138.997 87.8221 138.774 88.1829 138.612C88.5465 138.45 88.9584 138.369 89.4187 138.369C90.0664 138.369 90.5749 138.511 90.9442 138.795C91.3164 139.08 91.5806 139.455 91.7368 139.92ZM97.087 142.324V138.455H98.0927V145H97.087V143.892H97.0188C96.8654 144.224 96.6268 144.507 96.3029 144.74C95.979 144.97 95.57 145.085 95.0756 145.085C94.6665 145.085 94.3029 144.996 93.9847 144.817C93.6665 144.635 93.4165 144.362 93.2347 143.999C93.0529 143.632 92.962 143.17 92.962 142.614V138.455H93.9677V142.545C93.9677 143.023 94.1012 143.403 94.3683 143.688C94.6381 143.972 94.9819 144.114 95.3995 144.114C95.6495 144.114 95.9038 144.05 96.1623 143.922C96.4237 143.794 96.6424 143.598 96.8185 143.334C96.9975 143.07 97.087 142.733 97.087 142.324ZM99.5267 145V138.455H100.498V139.443H100.566C100.686 139.119 100.902 138.857 101.214 138.655C101.527 138.453 101.879 138.352 102.271 138.352C102.345 138.352 102.437 138.354 102.548 138.357C102.659 138.359 102.743 138.364 102.799 138.369V139.392C102.765 139.384 102.687 139.371 102.565 139.354C102.446 139.334 102.319 139.324 102.186 139.324C101.868 139.324 101.583 139.391 101.333 139.524C101.086 139.655 100.89 139.837 100.745 140.07C100.603 140.3 100.532 140.562 100.532 140.858V145H99.5267ZM106.129 145.136C105.498 145.136 104.954 144.997 104.496 144.719C104.042 144.438 103.691 144.045 103.444 143.543C103.2 143.037 103.077 142.449 103.077 141.778C103.077 141.108 103.2 140.517 103.444 140.006C103.691 139.491 104.035 139.091 104.475 138.804C104.918 138.514 105.435 138.369 106.026 138.369C106.367 138.369 106.704 138.426 107.036 138.54C107.369 138.653 107.671 138.838 107.944 139.094C108.217 139.347 108.434 139.682 108.596 140.099C108.758 140.517 108.839 141.031 108.839 141.642V142.068H103.793V141.199H107.816C107.816 140.83 107.742 140.5 107.595 140.21C107.45 139.92 107.242 139.692 106.972 139.524C106.705 139.357 106.39 139.273 106.026 139.273C105.626 139.273 105.279 139.372 104.987 139.571C104.697 139.767 104.474 140.023 104.318 140.338C104.161 140.653 104.083 140.991 104.083 141.352V141.932C104.083 142.426 104.168 142.845 104.339 143.189C104.512 143.53 104.752 143.79 105.059 143.969C105.366 144.145 105.722 144.233 106.129 144.233C106.393 144.233 106.631 144.196 106.845 144.122C107.06 144.045 107.246 143.932 107.403 143.781C107.559 143.628 107.68 143.437 107.765 143.21L108.737 143.483C108.634 143.812 108.462 144.102 108.221 144.352C107.979 144.599 107.681 144.793 107.326 144.932C106.971 145.068 106.572 145.136 106.129 145.136ZM113.575 147.455C113.405 147.455 113.253 147.44 113.119 147.412C112.986 147.386 112.894 147.361 112.842 147.335L113.098 146.449C113.342 146.511 113.558 146.534 113.746 146.517C113.933 146.5 114.1 146.416 114.244 146.266C114.392 146.118 114.527 145.878 114.649 145.545L114.837 145.034L112.416 138.455H113.507L115.314 143.67H115.382L117.189 138.455H118.28L115.502 145.955C115.377 146.293 115.222 146.572 115.037 146.794C114.852 147.018 114.638 147.185 114.394 147.293C114.152 147.401 113.879 147.455 113.575 147.455ZM121.624 145.136C121.033 145.136 120.515 144.996 120.069 144.714C119.625 144.433 119.279 144.04 119.029 143.534C118.782 143.028 118.658 142.437 118.658 141.761C118.658 141.08 118.782 140.484 119.029 139.976C119.279 139.467 119.625 139.072 120.069 138.791C120.515 138.51 121.033 138.369 121.624 138.369C122.215 138.369 122.732 138.51 123.175 138.791C123.621 139.072 123.968 139.467 124.215 139.976C124.465 140.484 124.59 141.08 124.59 141.761C124.59 142.437 124.465 143.028 124.215 143.534C123.968 144.04 123.621 144.433 123.175 144.714C122.732 144.996 122.215 145.136 121.624 145.136ZM121.624 144.233C122.073 144.233 122.442 144.118 122.732 143.888C123.022 143.658 123.236 143.355 123.375 142.98C123.515 142.605 123.584 142.199 123.584 141.761C123.584 141.324 123.515 140.916 123.375 140.538C123.236 140.161 123.022 139.855 122.732 139.622C122.442 139.389 122.073 139.273 121.624 139.273C121.175 139.273 120.806 139.389 120.516 139.622C120.226 139.855 120.012 140.161 119.873 140.538C119.733 140.916 119.664 141.324 119.664 141.761C119.664 142.199 119.733 142.605 119.873 142.98C120.012 143.355 120.226 143.658 120.516 143.888C120.806 144.118 121.175 144.233 121.624 144.233ZM129.842 142.324V138.455H130.848V145H129.842V143.892H129.774C129.621 144.224 129.382 144.507 129.058 144.74C128.734 144.97 128.325 145.085 127.831 145.085C127.422 145.085 127.058 144.996 126.74 144.817C126.422 144.635 126.172 144.362 125.99 143.999C125.808 143.632 125.717 143.17 125.717 142.614V138.455H126.723V142.545C126.723 143.023 126.856 143.403 127.123 143.688C127.393 143.972 127.737 144.114 128.155 144.114C128.405 144.114 128.659 144.05 128.917 143.922C129.179 143.794 129.398 143.598 129.574 143.334C129.753 143.07 129.842 142.733 129.842 142.324ZM136.732 145L134.737 138.455H135.794L137.209 143.466H137.277L138.675 138.455H139.749L141.129 143.449H141.198L142.612 138.455H143.669L141.675 145H140.686L139.254 139.972H139.152L137.72 145H136.732ZM146.517 145.153C146.102 145.153 145.726 145.075 145.388 144.919C145.05 144.76 144.781 144.531 144.582 144.233C144.383 143.932 144.284 143.568 144.284 143.142C144.284 142.767 144.358 142.463 144.506 142.23C144.653 141.994 144.851 141.81 145.098 141.676C145.345 141.543 145.618 141.443 145.916 141.378C146.217 141.31 146.52 141.256 146.824 141.216C147.221 141.165 147.544 141.126 147.791 141.101C148.041 141.072 148.223 141.026 148.337 140.96C148.453 140.895 148.511 140.781 148.511 140.619V140.585C148.511 140.165 148.396 139.838 148.166 139.605C147.939 139.372 147.594 139.256 147.131 139.256C146.65 139.256 146.274 139.361 146.001 139.571C145.729 139.781 145.537 140.006 145.426 140.244L144.471 139.903C144.642 139.506 144.869 139.196 145.153 138.974C145.44 138.75 145.753 138.594 146.091 138.506C146.432 138.415 146.767 138.369 147.096 138.369C147.307 138.369 147.548 138.395 147.821 138.446C148.096 138.494 148.362 138.595 148.618 138.749C148.876 138.902 149.091 139.134 149.261 139.443C149.432 139.753 149.517 140.168 149.517 140.688V145H148.511V144.114H148.46C148.392 144.256 148.278 144.408 148.119 144.57C147.96 144.732 147.748 144.869 147.484 144.983C147.22 145.097 146.898 145.153 146.517 145.153ZM146.67 144.25C147.068 144.25 147.403 144.172 147.676 144.016C147.952 143.859 148.159 143.658 148.298 143.411C148.44 143.163 148.511 142.903 148.511 142.631V141.71C148.469 141.761 148.375 141.808 148.23 141.851C148.088 141.891 147.923 141.926 147.736 141.957C147.551 141.986 147.371 142.011 147.194 142.034C147.021 142.054 146.881 142.071 146.773 142.085C146.511 142.119 146.267 142.175 146.04 142.251C145.815 142.325 145.633 142.437 145.494 142.588C145.358 142.736 145.29 142.937 145.29 143.193C145.29 143.543 145.419 143.807 145.677 143.986C145.939 144.162 146.27 144.25 146.67 144.25ZM151.95 141.062V145H150.945V138.455H151.916V139.477H152.001C152.155 139.145 152.388 138.878 152.7 138.676C153.013 138.472 153.416 138.369 153.91 138.369C154.354 138.369 154.741 138.46 155.074 138.642C155.406 138.821 155.665 139.094 155.849 139.46C156.034 139.824 156.126 140.284 156.126 140.841V145H155.121V140.909C155.121 140.395 154.987 139.994 154.72 139.707C154.453 139.418 154.087 139.273 153.621 139.273C153.3 139.273 153.013 139.342 152.76 139.482C152.51 139.621 152.312 139.824 152.168 140.091C152.023 140.358 151.95 140.682 151.95 141.062ZM160.403 138.455V139.307H157.011V138.455H160.403ZM157.999 136.886H159.005V143.125C159.005 143.409 159.046 143.622 159.128 143.764C159.214 143.903 159.322 143.997 159.452 144.045C159.586 144.091 159.726 144.114 159.874 144.114C159.985 144.114 160.076 144.108 160.147 144.097C160.218 144.082 160.275 144.071 160.317 144.062L160.522 144.966C160.454 144.991 160.359 145.017 160.236 145.043C160.114 145.071 159.959 145.085 159.772 145.085C159.488 145.085 159.209 145.024 158.937 144.902C158.667 144.78 158.442 144.594 158.263 144.344C158.087 144.094 157.999 143.778 157.999 143.398V136.886ZM167.321 138.455V139.307H163.929V138.455H167.321ZM164.918 136.886H165.923V143.125C165.923 143.409 165.964 143.622 166.047 143.764C166.132 143.903 166.24 143.997 166.371 144.045C166.504 144.091 166.645 144.114 166.793 144.114C166.903 144.114 166.994 144.108 167.065 144.097C167.136 144.082 167.193 144.071 167.236 144.062L167.44 144.966C167.372 144.991 167.277 145.017 167.155 145.043C167.033 145.071 166.878 145.085 166.69 145.085C166.406 145.085 166.128 145.024 165.855 144.902C165.585 144.78 165.361 144.594 165.182 144.344C165.006 144.094 164.918 143.778 164.918 143.398V136.886ZM171.015 145.136C170.424 145.136 169.905 144.996 169.459 144.714C169.016 144.433 168.669 144.04 168.419 143.534C168.172 143.028 168.049 142.437 168.049 141.761C168.049 141.08 168.172 140.484 168.419 139.976C168.669 139.467 169.016 139.072 169.459 138.791C169.905 138.51 170.424 138.369 171.015 138.369C171.605 138.369 172.123 138.51 172.566 138.791C173.012 139.072 173.358 139.467 173.605 139.976C173.855 140.484 173.98 141.08 173.98 141.761C173.98 142.437 173.855 143.028 173.605 143.534C173.358 144.04 173.012 144.433 172.566 144.714C172.123 144.996 171.605 145.136 171.015 145.136ZM171.015 144.233C171.463 144.233 171.833 144.118 172.123 143.888C172.412 143.658 172.627 143.355 172.766 142.98C172.905 142.605 172.975 142.199 172.975 141.761C172.975 141.324 172.905 140.916 172.766 140.538C172.627 140.161 172.412 139.855 172.123 139.622C171.833 139.389 171.463 139.273 171.015 139.273C170.566 139.273 170.196 139.389 169.907 139.622C169.617 139.855 169.402 140.161 169.263 140.538C169.124 140.916 169.054 141.324 169.054 141.761C169.054 142.199 169.124 142.605 169.263 142.98C169.402 143.355 169.617 143.658 169.907 143.888C170.196 144.118 170.566 144.233 171.015 144.233ZM178.075 147.455V138.455H179.046V139.494H179.166C179.239 139.381 179.342 139.236 179.472 139.06C179.606 138.881 179.796 138.722 180.043 138.582C180.293 138.44 180.631 138.369 181.058 138.369C181.609 138.369 182.095 138.507 182.515 138.783C182.935 139.058 183.264 139.449 183.499 139.955C183.735 140.46 183.853 141.057 183.853 141.744C183.853 142.438 183.735 143.038 183.499 143.547C183.264 144.053 182.937 144.445 182.519 144.723C182.102 144.999 181.62 145.136 181.075 145.136C180.654 145.136 180.318 145.067 180.065 144.928C179.812 144.786 179.617 144.625 179.481 144.446C179.345 144.264 179.239 144.114 179.166 143.994H179.08V147.455H178.075ZM179.063 141.727C179.063 142.222 179.136 142.658 179.281 143.036C179.425 143.411 179.637 143.705 179.916 143.918C180.194 144.128 180.535 144.233 180.938 144.233C181.359 144.233 181.71 144.122 181.991 143.901C182.275 143.676 182.488 143.375 182.63 142.997C182.775 142.616 182.847 142.193 182.847 141.727C182.847 141.267 182.776 140.852 182.634 140.483C182.495 140.111 182.283 139.817 181.999 139.601C181.718 139.382 181.364 139.273 180.938 139.273C180.529 139.273 180.185 139.376 179.907 139.584C179.629 139.788 179.418 140.075 179.276 140.445C179.134 140.811 179.063 141.239 179.063 141.727ZM184.979 145V138.455H185.951V139.443H186.019C186.138 139.119 186.354 138.857 186.667 138.655C186.979 138.453 187.331 138.352 187.723 138.352C187.797 138.352 187.89 138.354 188 138.357C188.111 138.359 188.195 138.364 188.252 138.369V139.392C188.218 139.384 188.14 139.371 188.017 139.354C187.898 139.334 187.772 139.324 187.638 139.324C187.32 139.324 187.036 139.391 186.786 139.524C186.539 139.655 186.343 139.837 186.198 140.07C186.056 140.3 185.985 140.562 185.985 140.858V145H184.979ZM191.496 145.136C190.905 145.136 190.386 144.996 189.94 144.714C189.497 144.433 189.151 144.04 188.901 143.534C188.654 143.028 188.53 142.437 188.53 141.761C188.53 141.08 188.654 140.484 188.901 139.976C189.151 139.467 189.497 139.072 189.94 138.791C190.386 138.51 190.905 138.369 191.496 138.369C192.087 138.369 192.604 138.51 193.047 138.791C193.493 139.072 193.84 139.467 194.087 139.976C194.337 140.484 194.462 141.08 194.462 141.761C194.462 142.437 194.337 143.028 194.087 143.534C193.84 144.04 193.493 144.433 193.047 144.714C192.604 144.996 192.087 145.136 191.496 145.136ZM191.496 144.233C191.945 144.233 192.314 144.118 192.604 143.888C192.894 143.658 193.108 143.355 193.247 142.98C193.386 142.605 193.456 142.199 193.456 141.761C193.456 141.324 193.386 140.916 193.247 140.538C193.108 140.161 192.894 139.855 192.604 139.622C192.314 139.389 191.945 139.273 191.496 139.273C191.047 139.273 190.678 139.389 190.388 139.622C190.098 139.855 189.884 140.161 189.744 140.538C189.605 140.916 189.536 141.324 189.536 141.761C189.536 142.199 189.605 142.605 189.744 142.98C189.884 143.355 190.098 143.658 190.388 143.888C190.678 144.118 191.047 144.233 191.496 144.233ZM198.248 145.136C197.634 145.136 197.106 144.991 196.663 144.702C196.22 144.412 195.879 144.013 195.64 143.504C195.401 142.996 195.282 142.415 195.282 141.761C195.282 141.097 195.404 140.51 195.649 140.001C195.896 139.49 196.239 139.091 196.68 138.804C197.123 138.514 197.64 138.369 198.231 138.369C198.691 138.369 199.106 138.455 199.475 138.625C199.845 138.795 200.147 139.034 200.383 139.341C200.619 139.648 200.765 140.006 200.822 140.415H199.816C199.739 140.116 199.569 139.852 199.305 139.622C199.043 139.389 198.691 139.273 198.248 139.273C197.856 139.273 197.512 139.375 197.217 139.58C196.924 139.781 196.695 140.067 196.531 140.436C196.369 140.803 196.288 141.233 196.288 141.727C196.288 142.233 196.367 142.673 196.526 143.048C196.688 143.423 196.916 143.714 197.208 143.922C197.504 144.129 197.85 144.233 198.248 144.233C198.509 144.233 198.747 144.188 198.96 144.097C199.173 144.006 199.353 143.875 199.501 143.705C199.649 143.534 199.754 143.33 199.816 143.091H200.822C200.765 143.477 200.624 143.825 200.4 144.135C200.178 144.442 199.884 144.686 199.518 144.868C199.154 145.047 198.731 145.136 198.248 145.136ZM204.628 145.136C203.998 145.136 203.454 144.997 202.996 144.719C202.542 144.438 202.191 144.045 201.944 143.543C201.699 143.037 201.577 142.449 201.577 141.778C201.577 141.108 201.699 140.517 201.944 140.006C202.191 139.491 202.535 139.091 202.975 138.804C203.418 138.514 203.935 138.369 204.526 138.369C204.867 138.369 205.204 138.426 205.536 138.54C205.868 138.653 206.171 138.838 206.444 139.094C206.716 139.347 206.934 139.682 207.096 140.099C207.258 140.517 207.339 141.031 207.339 141.642V142.068H202.293V141.199H206.316C206.316 140.83 206.242 140.5 206.094 140.21C205.949 139.92 205.742 139.692 205.472 139.524C205.205 139.357 204.89 139.273 204.526 139.273C204.126 139.273 203.779 139.372 203.486 139.571C203.197 139.767 202.974 140.023 202.817 140.338C202.661 140.653 202.583 140.991 202.583 141.352V141.932C202.583 142.426 202.668 142.845 202.839 143.189C203.012 143.53 203.252 143.79 203.559 143.969C203.866 144.145 204.222 144.233 204.628 144.233C204.893 144.233 205.131 144.196 205.344 144.122C205.56 144.045 205.746 143.932 205.902 143.781C206.059 143.628 206.179 143.437 206.265 143.21L207.236 143.483C207.134 143.812 206.962 144.102 206.721 144.352C206.479 144.599 206.181 144.793 205.826 144.932C205.471 145.068 205.072 145.136 204.628 145.136ZM211.205 145.136C210.574 145.136 210.03 144.997 209.573 144.719C209.118 144.438 208.767 144.045 208.52 143.543C208.276 143.037 208.154 142.449 208.154 141.778C208.154 141.108 208.276 140.517 208.52 140.006C208.767 139.491 209.111 139.091 209.551 138.804C209.994 138.514 210.512 138.369 211.102 138.369C211.443 138.369 211.78 138.426 212.112 138.54C212.445 138.653 212.747 138.838 213.02 139.094C213.293 139.347 213.51 139.682 213.672 140.099C213.834 140.517 213.915 141.031 213.915 141.642V142.068H208.869V141.199H212.892C212.892 140.83 212.818 140.5 212.671 140.21C212.526 139.92 212.318 139.692 212.048 139.524C211.781 139.357 211.466 139.273 211.102 139.273C210.702 139.273 210.355 139.372 210.063 139.571C209.773 139.767 209.55 140.023 209.394 140.338C209.237 140.653 209.159 140.991 209.159 141.352V141.932C209.159 142.426 209.244 142.845 209.415 143.189C209.588 143.53 209.828 143.79 210.135 143.969C210.442 144.145 210.798 144.233 211.205 144.233C211.469 144.233 211.708 144.196 211.921 144.122C212.137 144.045 212.323 143.932 212.479 143.781C212.635 143.628 212.756 143.437 212.841 143.21L213.813 143.483C213.71 143.812 213.539 144.102 213.297 144.352C213.056 144.599 212.757 144.793 212.402 144.932C212.047 145.068 211.648 145.136 211.205 145.136ZM217.508 145.136C216.963 145.136 216.481 144.999 216.064 144.723C215.646 144.445 215.319 144.053 215.084 143.547C214.848 143.038 214.73 142.438 214.73 141.744C214.73 141.057 214.848 140.46 215.084 139.955C215.319 139.449 215.648 139.058 216.068 138.783C216.488 138.507 216.974 138.369 217.525 138.369C217.952 138.369 218.288 138.44 218.535 138.582C218.785 138.722 218.976 138.881 219.106 139.06C219.24 139.236 219.344 139.381 219.417 139.494H219.503V136.273H220.508V145H219.537V143.994H219.417C219.344 144.114 219.238 144.264 219.102 144.446C218.966 144.625 218.771 144.786 218.518 144.928C218.265 145.067 217.929 145.136 217.508 145.136ZM217.645 144.233C218.048 144.233 218.389 144.128 218.667 143.918C218.946 143.705 219.158 143.411 219.302 143.036C219.447 142.658 219.52 142.222 219.52 141.727C219.52 141.239 219.449 140.811 219.307 140.445C219.165 140.075 218.954 139.788 218.676 139.584C218.398 139.376 218.054 139.273 217.645 139.273C217.219 139.273 216.863 139.382 216.579 139.601C216.298 139.817 216.087 140.111 215.944 140.483C215.805 140.852 215.736 141.267 215.736 141.727C215.736 142.193 215.807 142.616 215.949 142.997C216.094 143.375 216.307 143.676 216.588 143.901C216.872 144.122 217.224 144.233 217.645 144.233ZM223.394 142.545V142.494C223.4 141.952 223.457 141.52 223.565 141.199C223.673 140.878 223.826 140.618 224.025 140.419C224.224 140.22 224.463 140.037 224.741 139.869C224.909 139.767 225.059 139.646 225.193 139.507C225.326 139.365 225.431 139.202 225.508 139.017C225.588 138.832 225.627 138.628 225.627 138.403C225.627 138.125 225.562 137.884 225.431 137.679C225.301 137.474 225.126 137.317 224.907 137.206C224.688 137.095 224.446 137.04 224.178 137.04C223.946 137.04 223.721 137.088 223.505 137.185C223.289 137.281 223.109 137.433 222.964 137.641C222.819 137.848 222.735 138.119 222.713 138.455H221.639C221.661 137.972 221.786 137.558 222.014 137.214C222.244 136.871 222.546 136.608 222.921 136.426C223.299 136.244 223.718 136.153 224.178 136.153C224.678 136.153 225.113 136.253 225.482 136.452C225.855 136.651 226.142 136.923 226.343 137.27C226.548 137.616 226.65 138.011 226.65 138.455C226.65 138.767 226.602 139.05 226.505 139.303C226.411 139.555 226.275 139.781 226.096 139.98C225.92 140.179 225.707 140.355 225.457 140.509C225.207 140.665 225.007 140.83 224.856 141.003C224.705 141.173 224.596 141.376 224.528 141.612C224.46 141.848 224.423 142.142 224.417 142.494V142.545H223.394ZM223.94 145.068C223.73 145.068 223.549 144.993 223.399 144.842C223.248 144.692 223.173 144.511 223.173 144.301C223.173 144.091 223.248 143.911 223.399 143.76C223.549 143.609 223.73 143.534 223.94 143.534C224.15 143.534 224.33 143.609 224.481 143.76C224.632 143.911 224.707 144.091 224.707 144.301C224.707 144.44 224.671 144.568 224.6 144.685C224.532 144.801 224.44 144.895 224.323 144.966C224.21 145.034 224.082 145.068 223.94 145.068Z" fill="black"/>
</g>
<g clip-path="url(#clip2_297_2027)">
<rect x="141" y="170" width="104" height="40" rx="5" fill="#2AA241"/>
<path d="M179.069 187.672C179.029 187.3 178.862 187.01 178.566 186.803C178.274 186.595 177.893 186.491 177.424 186.491C177.095 186.491 176.812 186.541 176.576 186.641C176.34 186.74 176.16 186.875 176.035 187.045C175.91 187.216 175.846 187.411 175.843 187.629C175.843 187.811 175.884 187.969 175.967 188.102C176.052 188.236 176.167 188.349 176.312 188.443C176.457 188.534 176.617 188.611 176.793 188.673C176.97 188.736 177.147 188.788 177.326 188.831L178.144 189.036C178.474 189.112 178.791 189.216 179.095 189.347C179.401 189.477 179.676 189.642 179.917 189.841C180.161 190.04 180.355 190.28 180.497 190.561C180.639 190.842 180.71 191.172 180.71 191.55C180.71 192.061 180.579 192.511 180.318 192.901C180.056 193.287 179.678 193.589 179.184 193.808C178.693 194.024 178.097 194.132 177.399 194.132C176.72 194.132 176.13 194.027 175.63 193.817C175.133 193.607 174.744 193.3 174.462 192.896C174.184 192.493 174.033 192.001 174.011 191.422H175.566C175.589 191.726 175.683 191.979 175.847 192.18C176.012 192.382 176.227 192.533 176.491 192.632C176.758 192.732 177.056 192.781 177.386 192.781C177.73 192.781 178.031 192.73 178.289 192.628C178.551 192.523 178.755 192.378 178.903 192.193C179.051 192.006 179.126 191.787 179.129 191.537C179.126 191.31 179.059 191.122 178.928 190.974C178.798 190.824 178.614 190.699 178.379 190.599C178.146 190.497 177.873 190.406 177.56 190.327L176.568 190.071C175.849 189.886 175.281 189.607 174.863 189.232C174.448 188.854 174.241 188.352 174.241 187.727C174.241 187.213 174.38 186.763 174.658 186.376C174.94 185.99 175.322 185.69 175.805 185.477C176.288 185.261 176.835 185.153 177.445 185.153C178.065 185.153 178.607 185.261 179.073 185.477C179.542 185.69 179.91 185.987 180.177 186.368C180.444 186.746 180.582 187.18 180.59 187.672H179.069ZM185.815 191.247V187.455H187.357V194H185.862V192.837H185.793C185.646 193.203 185.403 193.503 185.065 193.736C184.73 193.969 184.316 194.085 183.825 194.085C183.396 194.085 183.016 193.99 182.687 193.8C182.36 193.607 182.105 193.327 181.92 192.96C181.735 192.591 181.643 192.145 181.643 191.622V187.455H183.186V191.384C183.186 191.798 183.299 192.128 183.526 192.372C183.754 192.616 184.052 192.739 184.421 192.739C184.649 192.739 184.869 192.683 185.082 192.572C185.295 192.462 185.47 192.297 185.606 192.078C185.745 191.857 185.815 191.58 185.815 191.247ZM188.604 194V185.273H190.146V188.537H190.21C190.29 188.378 190.402 188.209 190.547 188.03C190.692 187.848 190.888 187.693 191.135 187.565C191.382 187.435 191.698 187.369 192.081 187.369C192.587 187.369 193.043 187.499 193.449 187.757C193.858 188.013 194.182 188.392 194.421 188.895C194.662 189.395 194.783 190.009 194.783 190.736C194.783 191.455 194.665 192.065 194.429 192.568C194.193 193.071 193.872 193.455 193.466 193.719C193.06 193.983 192.6 194.115 192.085 194.115C191.71 194.115 191.399 194.053 191.152 193.928C190.905 193.803 190.706 193.652 190.556 193.476C190.408 193.297 190.293 193.128 190.21 192.969H190.121V194H188.604ZM190.117 190.727C190.117 191.151 190.176 191.521 190.296 191.839C190.418 192.158 190.592 192.406 190.82 192.585C191.05 192.761 191.328 192.849 191.655 192.849C191.996 192.849 192.281 192.759 192.512 192.577C192.742 192.392 192.915 192.141 193.031 191.822C193.151 191.501 193.21 191.136 193.21 190.727C193.21 190.321 193.152 189.96 193.036 189.645C192.919 189.33 192.746 189.082 192.516 188.903C192.286 188.724 191.999 188.635 191.655 188.635C191.325 188.635 191.046 188.722 190.816 188.895C190.585 189.068 190.411 189.311 190.291 189.624C190.175 189.936 190.117 190.304 190.117 190.727ZM195.686 194V187.455H197.161V188.567H197.237C197.374 188.192 197.6 187.899 197.915 187.689C198.23 187.476 198.607 187.369 199.044 187.369C199.487 187.369 199.861 187.477 200.165 187.693C200.472 187.906 200.688 188.197 200.813 188.567H200.881C201.026 188.203 201.27 187.913 201.614 187.697C201.96 187.479 202.371 187.369 202.845 187.369C203.448 187.369 203.939 187.56 204.32 187.94C204.7 188.321 204.891 188.876 204.891 189.607V194H203.344V189.845C203.344 189.439 203.236 189.142 203.02 188.955C202.804 188.764 202.54 188.669 202.227 188.669C201.855 188.669 201.564 188.786 201.354 189.018C201.146 189.249 201.043 189.548 201.043 189.918V194H199.53V189.781C199.53 189.443 199.428 189.173 199.223 188.972C199.021 188.77 198.757 188.669 198.431 188.669C198.209 188.669 198.007 188.726 197.825 188.839C197.644 188.95 197.499 189.108 197.391 189.312C197.283 189.514 197.229 189.75 197.229 190.02V194H195.686ZM206.048 194V187.455H207.59V194H206.048ZM206.823 186.526C206.579 186.526 206.369 186.445 206.193 186.283C206.017 186.118 205.928 185.92 205.928 185.69C205.928 185.457 206.017 185.26 206.193 185.098C206.369 184.933 206.579 184.851 206.823 184.851C207.071 184.851 207.281 184.933 207.454 185.098C207.63 185.26 207.718 185.457 207.718 185.69C207.718 185.92 207.63 186.118 207.454 186.283C207.281 186.445 207.071 186.526 206.823 186.526ZM212.037 187.455V188.648H208.274V187.455H212.037ZM209.203 185.886H210.746V192.031C210.746 192.239 210.777 192.398 210.84 192.509C210.905 192.616 210.99 192.69 211.095 192.73C211.201 192.77 211.317 192.79 211.445 192.79C211.541 192.79 211.63 192.783 211.709 192.768C211.791 192.754 211.854 192.741 211.897 192.73L212.156 193.936C212.074 193.964 211.956 193.996 211.803 194.03C211.652 194.064 211.468 194.084 211.249 194.089C210.862 194.101 210.514 194.043 210.205 193.915C209.895 193.784 209.649 193.582 209.468 193.31C209.289 193.037 209.201 192.696 209.203 192.287V185.886Z" fill="white"/>
<rect x="25.5" y="170.5" width="103" height="39" rx="4.5" stroke="#2AA241"/>
<path d="M66.2064 188.217H64.6127C64.5672 187.956 64.4834 187.724 64.3613 187.523C64.2391 187.318 64.0871 187.145 63.9053 187.003C63.7235 186.861 63.5161 186.754 63.2831 186.683C63.053 186.609 62.8044 186.572 62.5374 186.572C62.063 186.572 61.6425 186.692 61.276 186.93C60.9096 187.166 60.6226 187.513 60.4152 187.97C60.2079 188.425 60.1042 188.98 60.1042 189.636C60.1042 190.304 60.2079 190.866 60.4152 191.324C60.6255 191.778 60.9124 192.122 61.276 192.355C61.6425 192.585 62.0615 192.7 62.5331 192.7C62.7945 192.7 63.0388 192.666 63.2661 192.598C63.4962 192.527 63.7022 192.423 63.884 192.287C64.0687 192.151 64.2235 191.983 64.3485 191.784C64.4763 191.585 64.5644 191.358 64.6127 191.102L66.2064 191.111C66.1468 191.526 66.0175 191.915 65.8187 192.278C65.6226 192.642 65.3655 192.963 65.0473 193.241C64.7292 193.517 64.357 193.733 63.9309 193.889C63.5047 194.043 63.0317 194.119 62.5118 194.119C61.7448 194.119 61.0601 193.942 60.4579 193.587C59.8556 193.232 59.3812 192.719 59.0346 192.048C58.688 191.378 58.5147 190.574 58.5147 189.636C58.5147 188.696 58.6894 187.892 59.0388 187.224C59.3883 186.554 59.8641 186.041 60.4664 185.686C61.0687 185.331 61.7505 185.153 62.5118 185.153C62.9976 185.153 63.4493 185.222 63.8669 185.358C64.2846 185.494 64.6567 185.695 64.9834 185.959C65.3101 186.22 65.5786 186.541 65.7888 186.922C66.0019 187.3 66.1411 187.732 66.2064 188.217ZM69.0616 194.132C68.6468 194.132 68.2732 194.058 67.9408 193.911C67.6113 193.76 67.3499 193.538 67.1567 193.246C66.9664 192.953 66.8712 192.592 66.8712 192.163C66.8712 191.794 66.9394 191.489 67.0758 191.247C67.2121 191.006 67.3982 190.812 67.634 190.668C67.8698 190.523 68.1354 190.413 68.4309 190.339C68.7292 190.263 69.0374 190.207 69.3556 190.173C69.7391 190.134 70.0502 190.098 70.2888 190.067C70.5275 190.033 70.7008 189.982 70.8087 189.913C70.9195 189.842 70.9749 189.733 70.9749 189.585V189.56C70.9749 189.239 70.8798 188.99 70.6894 188.814C70.4991 188.638 70.2249 188.55 69.867 188.55C69.4891 188.55 69.1894 188.632 68.9678 188.797C68.7491 188.962 68.6013 189.156 68.5246 189.381L67.0843 189.176C67.1979 188.778 67.3854 188.446 67.6468 188.179C67.9082 187.909 68.2278 187.707 68.6056 187.574C68.9834 187.438 69.4011 187.369 69.8584 187.369C70.1738 187.369 70.4877 187.406 70.8002 187.48C71.1127 187.554 71.3982 187.676 71.6567 187.847C71.9153 188.014 72.1227 188.243 72.2789 188.533C72.438 188.822 72.5175 189.185 72.5175 189.619V194H71.0346V193.101H70.9834C70.8897 193.283 70.7576 193.453 70.5871 193.612C70.4195 193.768 70.2079 193.895 69.9522 193.991C69.6994 194.085 69.4025 194.132 69.0616 194.132ZM69.4621 192.999C69.7718 192.999 70.0403 192.937 70.2675 192.815C70.4948 192.69 70.6695 192.526 70.7917 192.321C70.9167 192.116 70.9792 191.893 70.9792 191.652V190.881C70.9309 190.92 70.8485 190.957 70.732 190.991C70.6184 191.026 70.4906 191.055 70.3485 191.081C70.2065 191.107 70.0658 191.129 69.9266 191.149C69.7874 191.169 69.6667 191.186 69.5644 191.2C69.3343 191.232 69.1283 191.283 68.9465 191.354C68.7647 191.425 68.6212 191.524 68.5161 191.652C68.411 191.777 68.3584 191.939 68.3584 192.138C68.3584 192.422 68.4621 192.636 68.6695 192.781C68.8769 192.926 69.1411 192.999 69.4621 192.999ZM75.2033 190.165V194H73.6607V187.455H75.1351V188.567H75.2118C75.3624 188.2 75.6024 187.909 75.932 187.693C76.2644 187.477 76.6749 187.369 77.1635 187.369C77.6152 187.369 78.0087 187.466 78.3439 187.659C78.682 187.852 78.9433 188.132 79.128 188.499C79.3155 188.865 79.4078 189.31 79.405 189.832V194H77.8624V190.071C77.8624 189.634 77.7487 189.291 77.5215 189.044C77.297 188.797 76.986 188.673 76.5882 188.673C76.3183 188.673 76.0783 188.733 75.8681 188.852C75.6607 188.969 75.4973 189.138 75.378 189.359C75.2615 189.581 75.2033 189.849 75.2033 190.165ZM83.4203 194.128C82.7669 194.128 82.2058 193.984 81.7371 193.697C81.2711 193.411 80.9118 193.014 80.6589 192.509C80.4089 192 80.2839 191.415 80.2839 190.753C80.2839 190.088 80.4118 189.501 80.6675 188.993C80.9231 188.482 81.2839 188.084 81.7498 187.8C82.2186 187.513 82.7726 187.369 83.4118 187.369C83.943 187.369 84.4132 187.467 84.8223 187.663C85.2342 187.857 85.5623 188.131 85.8067 188.486C86.051 188.838 86.1902 189.25 86.2243 189.722H84.7498C84.6902 189.406 84.5481 189.143 84.3237 188.933C84.1021 188.72 83.8052 188.614 83.4331 188.614C83.1177 188.614 82.8407 188.699 82.6021 188.869C82.3635 189.037 82.1774 189.278 82.0439 189.594C81.9132 189.909 81.8478 190.287 81.8478 190.727C81.8478 191.173 81.9132 191.557 82.0439 191.878C82.1746 192.196 82.3578 192.442 82.5936 192.615C82.8322 192.786 83.1121 192.871 83.4331 192.871C83.6603 192.871 83.8635 192.828 84.0425 192.743C84.2243 192.655 84.3763 192.528 84.4984 192.364C84.6206 192.199 84.7044 191.999 84.7498 191.763H86.2243C86.1873 192.226 86.051 192.636 85.8152 192.994C85.5794 193.349 85.2584 193.628 84.8521 193.83C84.4459 194.028 83.9686 194.128 83.4203 194.128ZM89.9807 194.128C89.3244 194.128 88.7577 193.991 88.2804 193.719C87.806 193.443 87.4409 193.054 87.1852 192.551C86.9295 192.045 86.8017 191.45 86.8017 190.766C86.8017 190.092 86.9295 189.501 87.1852 188.993C87.4438 188.482 87.8045 188.084 88.2676 187.8C88.7307 187.513 89.2747 187.369 89.8997 187.369C90.3031 187.369 90.6838 187.435 91.0418 187.565C91.4026 187.693 91.7207 187.892 91.9963 188.162C92.2747 188.432 92.4935 188.776 92.6526 189.193C92.8117 189.608 92.8912 190.102 92.8912 190.676V191.149H87.5261V190.109H91.4125C91.4097 189.814 91.3457 189.551 91.2207 189.321C91.0957 189.088 90.921 188.905 90.6966 188.771C90.475 188.638 90.2165 188.571 89.921 188.571C89.6057 188.571 89.3287 188.648 89.0901 188.801C88.8514 188.952 88.6653 189.151 88.5318 189.398C88.4011 189.642 88.3344 189.911 88.3315 190.203V191.111C88.3315 191.491 88.4011 191.818 88.5403 192.091C88.6795 192.361 88.8742 192.568 89.1242 192.713C89.3742 192.855 89.6668 192.926 90.002 192.926C90.2264 192.926 90.4295 192.895 90.6114 192.832C90.7932 192.767 90.9509 192.672 91.0844 192.547C91.2179 192.422 91.3188 192.267 91.3869 192.082L92.8273 192.244C92.7364 192.625 92.5631 192.957 92.3074 193.241C92.0545 193.523 91.7307 193.741 91.3358 193.898C90.9409 194.051 90.4892 194.128 89.9807 194.128ZM95.3309 185.273V194H93.7882V185.273H95.3309Z" fill="#2AA241"/>
</g>
<defs>
<clipPath id="clip0_297_2027">
<rect width="40" height="40" fill="white" transform="translate(115 24)"/>
</clipPath>
<clipPath id="clip1_297_2027">
<rect width="222" height="66" fill="white" transform="translate(24 84)"/>
</clipPath>
<clipPath id="clip2_297_2027">
<rect width="220" height="40" fill="white" transform="translate(25 170)"/>
</clipPath>
</defs>
</svg>
