<svg width="20" height="20" viewBox="0 0 20 20" fill="none" xmlns="http://www.w3.org/2000/svg">
<path d="M17.2414 17.4134H2.75862C1.61793 17.4134 0.689651 16.4851 0.689651 15.3445V7.0686C0.689651 5.92791 1.61793 4.99963 2.75862 4.99963H5.02L5.23793 4.34515C5.37501 3.93307 5.6384 3.57464 5.99073 3.32073C6.34305 3.06682 6.7664 2.93034 7.20069 2.93066H12.7986C13.6903 2.93066 14.4793 3.49894 14.7614 4.34515L14.9793 4.99963H17.2414C18.3821 4.99963 19.3103 5.92791 19.3103 7.0686V15.3445C19.3103 16.4851 18.3821 17.4134 17.2414 17.4134ZM2.75862 6.37894C2.57571 6.37894 2.40029 6.4516 2.27096 6.58094C2.14162 6.71027 2.06896 6.88569 2.06896 7.0686V15.3445C2.06896 15.5274 2.14162 15.7028 2.27096 15.8321C2.40029 15.9615 2.57571 16.0341 2.75862 16.0341H17.2414C17.4243 16.0341 17.5997 15.9615 17.729 15.8321C17.8584 15.7028 17.931 15.5274 17.931 15.3445V7.0686C17.931 6.88569 17.8584 6.71027 17.729 6.58094C17.5997 6.4516 17.4243 6.37894 17.2414 6.37894H14.98C14.3855 6.37894 13.8593 5.99963 13.6717 5.43549L13.4545 4.7817C13.4086 4.64437 13.3208 4.52494 13.2033 4.44028C13.0859 4.35563 12.9448 4.31004 12.8 4.30997H7.20207C7.05721 4.30973 6.91597 4.35519 6.79846 4.43989C6.68095 4.52459 6.59316 4.6442 6.54758 4.7817L6.32827 5.43618C6.23704 5.71094 6.06151 5.94993 5.82663 6.11919C5.59176 6.28844 5.3095 6.37933 5.02 6.37894H2.75862Z" fill="black"/>
<path d="M10 15.345C7.90896 15.345 6.20689 13.6429 6.20689 11.5519C6.20689 9.46086 7.90896 7.75879 10 7.75879C12.091 7.75879 13.7931 9.46086 13.7931 11.5519C13.7931 13.6429 12.091 15.345 10 15.345ZM10 9.1381C8.66896 9.1381 7.5862 10.2209 7.5862 11.5519C7.5862 12.8829 8.66896 13.9657 10 13.9657C11.331 13.9657 12.4138 12.8829 12.4138 11.5519C12.4138 10.2209 11.331 9.1381 10 9.1381Z" fill="black"/>
<path d="M14.1379 8.44865C14.5188 8.44865 14.8276 8.13988 14.8276 7.75899C14.8276 7.37811 14.5188 7.06934 14.1379 7.06934C13.757 7.06934 13.4483 7.37811 13.4483 7.75899C13.4483 8.13988 13.757 8.44865 14.1379 8.44865Z" fill="black"/>
<path d="M3.79311 3.27539H2.75862C2.66717 3.27539 2.57946 3.31172 2.51479 3.37639C2.45013 3.44106 2.4138 3.52876 2.4138 3.62022C2.4138 3.71167 2.45013 3.79938 2.51479 3.86405C2.57946 3.92872 2.66717 3.96505 2.75862 3.96505H3.79311C3.88456 3.96505 3.97227 3.92872 4.03694 3.86405C4.1016 3.79938 4.13793 3.71167 4.13793 3.62022C4.13793 3.52876 4.1016 3.44106 4.03694 3.37639C3.97227 3.31172 3.88456 3.27539 3.79311 3.27539Z" fill="black"/>
<path d="M3.7931 4.30997H2.75862C2.57571 4.30997 2.40029 4.23731 2.27096 4.10798C2.14162 3.97864 2.06896 3.80323 2.06896 3.62032C2.06896 3.43741 2.14162 3.26199 2.27096 3.13266C2.40029 3.00332 2.57571 2.93066 2.75862 2.93066H3.7931C3.97601 2.93066 4.15142 3.00332 4.28076 3.13266C4.4101 3.26199 4.48276 3.43741 4.48276 3.62032C4.48276 3.80323 4.4101 3.97864 4.28076 4.10798C4.15142 4.23731 3.97601 4.30997 3.7931 4.30997Z" fill="black"/>
</svg>
