<svg width="40" height="40" viewBox="0 0 40 40" fill="none" xmlns="http://www.w3.org/2000/svg">
<g clip-path="url(#clip0_297_1401)">
<path d="M40 19.9998L38.1472 22.3902L39.3228 25.177L36.9133 27.0054L37.3227 30.0017L34.5209 31.1412L34.142 34.142L31.1412 34.5209L30.0017 37.3231L27.005 36.9133L25.177 39.3228L22.3902 38.1472L19.9998 40L17.6094 38.1472L14.8226 39.3228L12.9946 36.9133L9.99786 37.3227L8.85841 34.5209L5.858 34.142L5.47872 31.1412L2.67689 30.0017L3.08628 27.005L0.676752 25.177L1.85283 22.3902L0 19.9998L1.85283 17.6094L0.676752 14.8226L3.08628 12.9946L2.67689 9.99786L5.47872 8.85841L5.858 5.858L8.85882 5.47872L9.99786 2.67689L12.9946 3.08628L14.8226 0.676752L17.6094 1.85283L19.9998 0L22.3902 1.85283L25.177 0.676752L27.0054 3.08628L30.0017 2.67689L31.1412 5.47872L34.142 5.858L34.5209 8.85882L37.3231 9.99786L36.9133 12.9946L39.3228 14.8226L38.1472 17.6094L40 19.9998Z" fill="#2AA241"/>
<path d="M16.2673 27.8913L11.8015 23.4251L13.4692 21.7574L16.179 24.4673L26.4886 13.0312L28.2405 14.6102L16.2673 27.8913Z" fill="white"/>
</g>
<defs>
<clipPath id="clip0_297_1401">
<rect width="40" height="40" fill="white"/>
</clipPath>
</defs>
</svg>
